<svg xmlns="http://www.w3.org/2000/svg" width="39" height="40" fill="rgb(0%,0%,0%)" xmlns:v="https://vecta.io/nano"><path d="M10.855.652a1.45 1.45 0 0 0-.352.078.69.69 0 0 1-.266.016.5.5 0 0 0-.32.055c-.082.043-.23.082-.328.094-.102.004-.219.023-.262.047s-.223.063-.402.09-.363.078-.41.109a1.1 1.1 0 0 1-.273.082c-.105.012-.223.051-.262.086s-.145.078-.234.094-.164.047-.164.07-.035.039-.078.039-.227.074-.414.172l-.387.172c-.031 0-.098.039-.16.086s-.152.086-.199.086-.117.031-.148.066-.25.191-.484.348l-.613.445-.539.434c-.195.156-.352.305-.355.328 0 .031-.082.121-.184.207a2.47 2.47 0 0 0-.555.59l-.305.383c-.066.059-.156.195-.211.297s-.137.211-.199.25-.094.086-.086.109c.016.016-.051.145-.141.285-.156.227-.371.641-.617 1.199-.055.113-.117.227-.137.238s-.074.16-.117.324-.109.359-.148.438-.074.184-.074.242c0 .051-.016.113-.043.141s-.062.176-.082.34l-.109.582a3.56 3.56 0 0 0-.086.578c-.035.473-.078.777-.121.836-.027.027-.023.059.008.074s.035.215.02.574l-.023.871c0 .18-.023.352-.051.383-.039.047-.031.07.027.113.051.039.066.082.047.117-.035.055-.066 1.613-.059 2.949l.039 7.375-.016 1.07.023 1.047c.023.016.027.082.016.156-.039.16-.039 1.867-.004 1.926.012.02.004.102-.02.176-.02.086-.02.18 0 .242.023.055.047.375.063.707l.047.652c.016.023.047.227.066.449a4.14 4.14 0 0 0 .148.734c.063.188.109.391.109.457 0 .117.031.199.223.637.047.098.082.219.082.266s.016.086.035.086.094.133.16.289c.477 1.145.539 1.273.711 1.43a1.49 1.49 0 0 1 .266.352c.176.348.375.578 1.277 1.504l.68.637a1.25 1.25 0 0 1 .195.141 6.37 6.37 0 0 0 .531.375l.5.344a.86.86 0 0 0 .238.129c.105.043.223.117.266.16s.098.078.133.078c.027 0 .102.031.156.07a2.09 2.09 0 0 0 .332.145 1.11 1.11 0 0 1 .309.152c.035.035.102.063.152.063s.207.055.355.113c.145.066.316.121.375.129a4.71 4.71 0 0 1 .863.242c.102.047.336.105.52.125l.461.055 1.688.141c.668.031 12.621.035 14.105.004 1-.023 1.766-.102 1.855-.191.047-.047.242-.039.305.016.008.004.086-.016.172-.043s.309-.078.484-.109a2.04 2.04 0 0 0 .445-.117.56.56 0 0 1 .207-.059c.043 0 .094-.023.105-.043.016-.027.066-.043.109-.043s.23-.051.406-.109.359-.109.41-.109.094-.027.105-.059.105-.086.195-.113c.098-.02.195-.074.227-.105s.078-.066.109-.066.078-.031.105-.066.137-.086.234-.113.242-.102.32-.152a2.14 2.14 0 0 1 .297-.152c.082-.023.156-.086.168-.125s.09-.098.172-.125a1.28 1.28 0 0 0 .324-.176c.098-.07.191-.125.211-.125s.074-.039.113-.082a.62.62 0 0 1 .191-.133c.063-.027.164-.113.223-.195a2.14 2.14 0 0 1 .379-.344c.258-.191 1.227-1.191 1.227-1.27 0-.016.086-.121.195-.223s.238-.27.285-.363a2.25 2.25 0 0 1 .215-.316c.07-.078.125-.16.125-.18s.051-.09.102-.16.164-.301.238-.523l.176-.473c.156-.301.395-.914.395-1.016a.42.42 0 0 1 .039-.148c.082-.168.148-.395.184-.656.023-.156.055-.32.078-.367.063-.148.133-.492.133-.641 0-.07.027-.254.059-.398.039-.18.043-.293.012-.359s-.02-.129.02-.211c.078-.16.102-.652.039-.727-.035-.043-.047-.18-.023-.461.063-.766.07-1.945.074-8.508l.016-3.02v-3.387a23.99 23.99 0 0 0-.062-1.391c-.027-.199-.027-.367-.004-.41s.02-.16-.008-.289l-.062-.383c-.016-.086-.039-.172-.062-.184s-.039-.078-.039-.141a.9.9 0 0 0-.039-.246l-.09-.32c-.082-.297-.207-.633-.305-.82-.047-.094-.082-.184-.078-.203.02-.082-.062-.359-.121-.406-.035-.023-.059-.109-.059-.184 0-.102-.039-.176-.133-.266-.066-.066-.129-.168-.129-.223 0-.09-.125-.316-.531-.937-.078-.113-.16-.254-.191-.301a.66.66 0 0 0-.109-.133c-.035-.023-.141-.184-.246-.348s-.207-.305-.227-.312-.168-.152-.328-.324c-.672-.703-.883-.898-1.172-1.09l-.215-.164c-.187-.168-.715-.551-.965-.695-.043-.027-.105-.07-.137-.094-.094-.074-1.078-.574-1.129-.574-.027 0-.082-.027-.117-.062s-.187-.09-.332-.133-.305-.094-.367-.117c-.109-.047-.25-.082-.715-.164-.145-.023-.293-.062-.332-.086s-.117-.043-.16-.043c-.051 0-.102-.02-.113-.047-.02-.027-.062-.035-.098-.023-.039.02-.09.012-.117-.008s-.176-.051-.336-.062c-.164-.02-.34-.055-.391-.078-.105-.059-1.062-.117-2.16-.145-.348-.004-.656-.023-.684-.043s-.074-.016-.094-.004c-.043.027-4.762.086-5.828.078a90.39 90.39 0 0 0-2.891.008c-.441.016-.512.008-.512-.051 0-.047-.02-.055-.074-.031-.043.023-.391.039-.77.043s-.711.008-.738.02c-.02.004-.078.004-.121 0s-.105.016-.137.043c-.043.039-.082.035-.16-.016-.07-.039-.219-.055-.469-.051-.203.004-.414-.008-.469-.023-.062-.023-.207-.016-.383.027-.156.035-.301.047-.332.031s-.195-.035-.379-.035c-.176-.004-.402-.02-.496-.035s-.293-.004-.434.02zM19.5.953l5.242-.016a50.33 50.33 0 0 1 2.926.137c.438.051 1.316.23 1.688.332.109.035.238.059.266.059.063 0 .438.117.676.215l.297.109c.316.121.93.41 1.191.559a8.19 8.19 0 0 1 1.039.684c.664.496 1.035.82 1.496 1.309.367.387.469.5.766.902.086.117.18.219.195.227s.035.035.035.055.055.121.125.223.199.32.285.488l.246.43c.176.305.344.688.586 1.34.035.094.094.227.125.301.063.16.141.449.191.727a3.67 3.67 0 0 0 .086.344c.055.176.125.66.184 1.238.055.492.059 10.063.016 14.688-.031 2.918-.074 3.676-.262 4.551-.039.18-.086.426-.109.547s-.074.273-.105.344-.066.164-.066.215-.012.105-.027.117a2.92 2.92 0 0 0-.234.57c0 .082-.523 1.074-.707 1.336a9.51 9.51 0 0 1-.805 1.078c-.426.512-.906.988-1.281 1.273l-.324.258c-.055.059-.387.305-.41.305s-.289.172-.328.219c-.012.012-.051.039-.086.051a5.04 5.04 0 0 0-.195.117 3.16 3.16 0 0 1-.195.117 2.4 2.4 0 0 0-.215.133c-.187.125-.789.414-1.496.715a4.22 4.22 0 0 1-.562.199c-.07.023-.187.059-.262.078-.328.113-.824.234-1.453.355a27.91 27.91 0 0 1-.844.133c-.586.078-.891.082-8.363.07-7.879-.012-8.141-.02-8.773-.172l-.391-.082c-.352-.062-.719-.152-.816-.207a.51.51 0 0 0-.191-.047c-.055 0-.121-.016-.141-.039a.8.8 0 0 0-.219-.086c-.25-.059-.512-.16-.902-.344l-.418-.195a1.63 1.63 0 0 1-.215-.117c-.086-.051-.23-.137-.328-.184-.262-.148-.523-.32-.988-.664-.68-.504-.93-.734-1.465-1.348a11.77 11.77 0 0 0-.379-.43c-.07-.07-.602-.793-.684-.934-.355-.574-.488-.801-.512-.875-.016-.051-.051-.09-.07-.09s-.039-.023-.039-.051c0-.043-.066-.191-.324-.746a2 2 0 0 1-.094-.25c-.012-.066-.043-.133-.062-.145s-.039-.074-.039-.133-.027-.168-.062-.242c-.066-.168-.152-.461-.195-.719-.02-.109-.055-.281-.082-.391-.137-.559-.152-1.332-.168-10.008l.051-9.32c.066-.613.156-1.125.254-1.422.023-.082.059-.23.078-.324.051-.27.203-.746.328-1.043.215-.508.344-.773.445-.941l.184-.324a1.8 1.8 0 0 1 .152-.25c.027-.027.055-.07.055-.094 0-.035.344-.551.438-.664.027-.027.156-.203.297-.395.418-.57 1.215-1.336 1.922-1.852.102-.074.23-.176.289-.23a.44.44 0 0 1 .148-.094c.023 0 .074-.027.109-.062a2.76 2.76 0 0 1 .352-.207c.156-.078.363-.199.461-.262.105-.066.207-.117.227-.117s.156-.059.301-.129.289-.129.324-.129a.32.32 0 0 0 .141-.066c.047-.035.113-.062.152-.062.07 0 .285-.059.734-.195a3.66 3.66 0 0 1 .375-.086c.105-.02.195-.047.215-.07.012-.02.09-.039.168-.039a1.19 1.19 0 0 0 .332-.059c.105-.035.313-.074.469-.086l.605-.066a19.17 19.17 0 0 1 1.383-.043c.582 0 1.07-.012 1.086-.031s.328-.012.695.012c.371.016 2.828.027 5.461.02zm0 0"/><path d="M13.246 1.484c-.301.168-.637.512-.719.742-.031.094-.066.25-.07.352-.02.313.004.305-.641.305-.387 0-.617.02-.687.055a1.05 1.05 0 0 1-.254.086c-.527.109-1.172.434-1.672.836-.328.27-.926.898-.926.973 0 .09-.418.512-.73.742l-.316.246-.172.16c-.172.145-.406.418-.582.664-.09.129-.187.254-.223.27s-.059.059-.059.078c0 .027-.082.156-.184.289l-.219.313c-.016.036-.07.121-.117.191a9.57 9.57 0 0 0-.301.586l-.289.57c-.035.07-.059.156-.059.195s-.031.113-.066.156a.33.33 0 0 0-.062.168.51.51 0 0 1-.062.195c-.082.16-.199.555-.199.684a.5.5 0 0 1-.051.199c-.141.246-.16 1.457-.16 8.961l.16 8.59.09.34.117.41.098.379c.023.09.063.191.09.215s.047.078.047.113c0 .066.063.207.363.824.469.969 1.41 2.141 2.215 2.754l.305.25c.078.086.848.578.902.578.035 0 .082.027.113.063s.078.066.109.066.121.035.203.074l.262.129a.57.57 0 0 0 .195.055c.043 0 .117.031.16.066s.129.063.18.063a.58.58 0 0 1 .219.066.62.62 0 0 0 .238.063 1.15 1.15 0 0 1 .297.066c.102.035.246.063.332.063a.84.84 0 0 1 .262.051c.066.023.309.066.535.09.512.051 13.082.109 13.648.063 1.336-.105 1.754-.176 2.363-.383.074-.02.195-.059.277-.078a.45.45 0 0 0 .188-.082c.024-.027.09-.047.133-.047a.57.57 0 0 0 .195-.059 47.59 47.59 0 0 1 .551-.266c.238-.117.516-.262.617-.332.105-.062.195-.121.207-.121.055 0 1.059-.789 1.277-1 .379-.367 1.082-1.187 1.082-1.266a.74.74 0 0 1 .105-.164c.125-.164.305-.488.527-.934l.215-.441c.035-.059.063-.145.063-.195 0-.043.031-.113.066-.156a.45.45 0 0 0 .063-.195.38.38 0 0 1 .066-.195c.035-.043.063-.133.063-.195s.031-.148.066-.191.066-.129.066-.187c0-.051.023-.16.059-.234.141-.324.195-.797.223-1.891.039-1.687.039-14.457 0-14.969a3.51 3.51 0 0 0-.09-.594.94.94 0 0 1-.062-.324c-.004-.102-.031-.23-.066-.293s-.059-.168-.062-.234a.44.44 0 0 0-.062-.219c-.035-.051-.07-.133-.082-.191-.059-.285-.43-1.113-.641-1.445-.043-.074-.102-.168-.125-.219-.094-.168-.309-.5-.348-.539a6.09 6.09 0 0 1-.238-.301 4.64 4.64 0 0 0-.254-.324c-.031-.023-.148-.168-.266-.324-.266-.344-.797-.871-1.113-1.098-.137-.094-.285-.238-.34-.316-.152-.215-1.016-1.027-1.293-1.207-.551-.355-.984-.562-1.594-.758-.16-.051-.379-.07-.781-.07-.379 0-.578-.016-.613-.051s-.051-.145-.051-.254c0-.254-.129-.559-.309-.719-.074-.062-.164-.148-.207-.184a2.31 2.31 0 0 0-.781-.348c-.098 0-.379.129-.695.316-.289.164-.617.738-.574.988.035.207.031.207-1.484.215l-1.43.012-.016-.105c-.02-.191-.105-.492-.191-.648-.082-.168-.355-.449-.52-.539-.266-.152-.492-.238-.617-.238-.309 0-.934.383-1.121.684-.086.137-.148.348-.227.766-.02.094-.031.094-1.383.102l-1.367.004v-.242c0-.25-.051-.375-.277-.684-.141-.195-.262-.309-.395-.371-.047-.023-.172-.094-.277-.148-.27-.156-.52-.141-.84.039zm11.684.625c.168.066.246.488.246 1.316 0 .758-.043.914-.289 1.062-.184.102-.23.105-.398.008-.262-.148-.277-.234-.258-1.273l.023-.937.117-.105c.125-.117.359-.145.559-.07zm-10.969.074c.293.145.293.16.297 1.16v.906l-.109.121c-.102.102-.145.117-.367.117-.43 0-.426.008-.418-1.164.004-.855.016-.992.082-1.094.094-.137.305-.16.516-.047zm5.496.055l.152.125-.008.934c-.016 1.039-.031 1.102-.297 1.191-.105.031-.195.031-.316 0-.25-.066-.277-.176-.297-1.145-.02-.754-.016-.836.066-1.027l.086-.203h.234c.191 0 .258.023.379.125zm-6.484.723c.055.137.027.445-.039.473-.078.031-.277-.184-.281-.301 0-.184.262-.324.32-.172zm5.324.191c.059.281-.07.402-.207.195-.062-.094-.062-.117 0-.242.09-.164.164-.148.207.047zm5.449.02c0 .117-.039.137-.117.059-.059-.059-.023-.168.059-.168.031 0 .059.043.059.109zm-5.84.398c.012.02 0 .109-.031.199-.051.145-.051.203 0 .391.125.477.34.742.746.93.586.277 1.262.07 1.555-.473.043-.082.109-.187.145-.227.047-.059.055-.168.035-.473l-.023-.402h1.578c1.148 0 1.578.012 1.578.047s-.031.109-.066.172c-.074.145-.082.332-.023.441a1.67 1.67 0 0 1 .09.18c.141.332.492.68.805.793.355.125.609.094.969-.109.035-.023.102-.047.145-.066.094-.027.422-.473.422-.566 0-.039.027-.117.066-.168.055-.074.066-.18.055-.41l-.016-.312.414.012c.43.016.934.109 1.133.207a.49.49 0 0 0 .172.063c.051 0 .57.246.754.359a6.36 6.36 0 0 1 .91.723c.379.41.68.891.852 1.355.148.395.18.484.207.691a6.47 6.47 0 0 0 .086.363c.031.105.047 2.148.047 6.539l-.086 6.652a3.36 3.36 0 0 1-.125.344c-.023.043-.078.156-.121.25a3.14 3.14 0 0 1-.582.77c-.18.157-.66.375-1.145.52-.457.133-.93.172-2.559.199-1.262.016-1.68.039-1.797.086-.535.211-.953.469-1.312.816-.379.355-.855 1.09-.855 1.313 0 .055-.016.113-.039.137-.059.059-.137.383-.176.754-.023.176-.047 1.109-.062 2.07-.023 1.832-.062 2.414-.18 2.699-.242.594-.609 1.078-1.012 1.336-.367.238-.629.367-.73.367a.9.9 0 0 0-.238.063c-.195.082-.742.082-1.527.004-.398-.043-1.41-.059-3.488-.059s-2.965-.016-3.055-.051a2.52 2.52 0 0 0-.305-.086c-.387-.078-.578-.176-1.152-.547-.48-.312-1.035-.863-1.266-1.262-.09-.148-.16-.285-.16-.301 0-.023-.027-.062-.062-.094s-.066-.105-.066-.168a.42.42 0 0 0-.066-.203c-.031-.043-.062-.113-.062-.164 0-.043-.027-.168-.062-.277a7.52 7.52 0 0 1-.137-.602c-.066-.371-.07-1.242-.074-10.879l.06-10.707.148-.488a2.51 2.51 0 0 1 .176-.43l.258-.492a3.25 3.25 0 0 1 1.293-1.242c.117-.062.246-.137.281-.16.125-.102.504-.23 1.156-.391.16-.043.461-.066.73-.066h.453v.105c0 .063-.031.16-.07.223-.066.098-.066.125.012.352.121.359.215.508.441.668.363.262.551.332.848.332.352 0 .539-.086.844-.391.336-.332.473-.773.352-1.102-.023-.062-.039-.137-.027-.164.02-.051 2.887-.043 2.941.008zm13.121 2.645c0 .023-.031.039-.066.039s-.062-.039-.062-.09c0-.078.008-.082.063-.039.035.031.066.07.066.09zm-23.488.27a1.24 1.24 0 0 1-.09.32c-.051.059-.109.5-.168 1.305-.07.965-.035 19.855.039 20.254a6.51 6.51 0 0 0 .988 2.426c.426.648 1.207 1.289 2.004 1.652l.313.152c.067.035.16.063.219.063s.125.023.148.047.16.055.301.066.324.039.406.059c.262.07.848.082 2.125.039a58.25 58.25 0 0 1 4.137-.004c1.566.055 2.109 0 2.773-.27a1.42 1.42 0 0 1 .27-.082c.078-.02.152-.051.164-.074.02-.023.066-.039.113-.039s.094-.031.109-.066.051-.062.082-.062.086-.027.117-.055.176-.148.324-.262a27.26 27.26 0 0 0 2.215-2.164c.176-.215.637-.707 1.023-1.102l1.996-2.105c.094-.105.27-.293.383-.414l.605-.641.508-.543.672-.723c1.066-1.152 1.098-1.199 1.434-1.871l.199-.402c.063-.133.188-.758.254-1.324.059-.496.086-12.578.031-12.941-.02-.129-.055-.379-.074-.551s-.07-.352-.102-.391c-.07-.078-.113-.371-.066-.418s.207.066.207.152c0 .047.02.086.035.086s.117.121.211.266c.102.152.285.379.398.512.125.129.223.254.223.273a.65.65 0 0 0 .121.195 2.89 2.89 0 0 1 .168.242 9.53 9.53 0 0 1 .492 1.012c0 .027.02.09.051.145.117.207.262.668.34 1.07.02.109.059.273.09.363.039.133.055 1.883.066 7.699.012 7.367-.008 8.73-.125 9.402-.078.434-.34 1.273-.492 1.563a.49.49 0 0 0-.062.195c0 .043-.027.117-.062.16a.39.39 0 0 0-.07.148.85.85 0 0 1-.094.25 7.87 7.87 0 0 0-.199.391c-.156.313-.422.691-.715 1.023-.473.527-1.172 1.207-1.414 1.371l-.422.289c-.32.227-1.203.648-1.352.648-.043 0-.113.031-.16.066s-.117.066-.156.066-.125.023-.195.059c-.195.094-.555.199-.691.199-.074 0-.227.031-.344.074-.195.063-.816.066-7.133.082-3.945.008-7.09-.004-7.301-.027-1.195-.125-1.703-.23-2.254-.461-.074-.031-.16-.059-.195-.059s-.078-.016-.102-.031c-.023-.023-.137-.074-.258-.117a7.31 7.31 0 0 1-1.109-.566c-.035-.035-.082-.059-.098-.059-.148 0-1.367-1.152-1.668-1.574-.324-.449-.586-.859-.637-.973a10.21 10.21 0 0 0-.207-.41c-.094-.187-.187-.406-.207-.473-.016-.074-.051-.191-.074-.262l-.121-.387c-.043-.141-.094-.32-.125-.387-.09-.219-.152-.5-.195-.883-.027-.203-.066-.434-.086-.516-.027-.102-.043-2.937-.043-7.937l.07-8.176c.07-.437.168-.82.258-1.082.035-.102.063-.219.063-.27s.016-.102.039-.117.051-.074.063-.141c.031-.133.059-.191.375-.832.211-.422.605-1.059.758-1.215.035-.035.063-.09.063-.113 0-.031.016-.055.035-.055s.109-.113.203-.258.188-.258.207-.258.031-.027.031-.062.031-.066.066-.086c.035-.012.066-.07.066-.129 0-.117.223-.363.254-.281.008.027-.008.164-.039.313zm23.098 15.141c0 .137-.055.301-.195.582-.234.473-.332.531-.547.328-.066-.062-.125-.145-.125-.176 0-.059.781-.918.832-.918.023 0 .035.082.035.184zm-.867 1.105c0 .074-.027.098-.336.344-.105.078-.293.273-.422.434a15.96 15.96 0 0 1-.758.824l-2.082 2.18-.453.477a39.54 39.54 0 0 0-1.062 1.141l-.625.672c-1.02 1.035-1.844 1.961-1.844 2.082 0 .023-.031.051-.07.059-.055.008-.051.027.027.109.094.102.094.105.016.258-.047.082-.121.168-.168.191a6.75 6.75 0 0 0-.391.273c-.289.215-.586.336-.586.246 0-.027.07-.117.152-.207s.152-.184.152-.211.039-.086.082-.125a.41.41 0 0 0 .113-.195c.012-.059.09-.191.172-.285.117-.137.156-.164.199-.121.094.09.125.066.125-.086 0-.078.027-.176.063-.223a.8.8 0 0 0 .09-.238c.02-.082.055-.176.074-.203.07-.086.117-.984.16-2.922.031-1.469.051-1.797.109-1.93.039-.094.07-.199.07-.242 0-.086.07-.227.379-.734.27-.449.641-.711 1.223-.871.328-.086 1.406-.164 2.406-.172 1.434-.008 1.996-.09 2.449-.352.031-.02.125-.066.191-.102l.285-.148c.16-.086.258-.055.258.078zM26.117 4.516c-.023.102-.066.191-.102.203s-.059.059-.059.098-.121.188-.27.336c-.312.301-.672.457-1.062.457-.125 0-.227.016-.227.043s.133.043.32.043c.301 0 .379-.023.676-.176.035-.023.129-.07.211-.109.18-.09.48-.465.48-.594 0-.055.023-.117.047-.145s.039-.113.031-.191l-.012-.145zm-8.437.058c-.02.176.004.367.047.379.023.008.039.039.039.07 0 .102.352.402.508.434a.55.55 0 0 0 .172.008c.012-.012-.09-.094-.219-.18-.285-.191-.383-.312-.473-.605-.047-.168-.07-.187-.074-.105zm-5.328.137c0 .09.02.164.043.164.055 0 .055-.172 0-.258-.031-.047-.043-.023-.043.094zm8.156.023c-.043.117-.32.422-.605.66-.109.09-.484.172-.77.172-.203 0-.332.051-.273.109s.563.027.691-.039l.359-.164c.234-.105.586-.398.586-.488 0-.035.023-.066.047-.074s.039-.082.031-.164l-.012-.152zm2.762.051c0 .051.027.121.059.156.168.195.332.355.391.379.039.016.07.047.07.074 0 .02.035.043.082.043s.105.027.137.063a.2.2 0 0 0 .145.063c.086-.008.086-.012-.02-.055-.164-.078-.633-.43-.664-.504a1.48 1.48 0 0 0-.172-.289c-.016-.012-.027.02-.027.07zm-8.286.192c-.066.082-.207.215-.316.289s-.18.156-.168.18.07.008.117-.031a1.27 1.27 0 0 1 .16-.094c.109-.047.332-.289.363-.395.047-.137-.023-.117-.156.051zm-2.375.156c0 .027.023.043.043.043.027 0 .043.031.043.07s.039.078.09.09.086.039.086.063.051.039.121.039h.117L13 5.348c-.184-.145-.391-.258-.391-.215zm0 0"/><path d="M14.234 5.523c-.012.02.012.043.063.043s.09-.023.09-.043c0-.027-.027-.043-.062-.043s-.078.016-.09.043zm4.27 0c0 .02.039.043.082.043a.84.84 0 0 1 .164.023c.07.023.07.02-.004-.043-.094-.078-.242-.09-.242-.023zm1.066 1c-.156.125-.164.145-.145.324a.5.5 0 0 0 .145.316c.102.113.152.125.375.125.211 0 .281-.02.402-.109.133-.102.148-.141.148-.309 0-.285-.234-.484-.562-.484a.46.46 0 0 0-.363.137zm4.09.036c-.043.023-.047.191-.027.805l.051 1.797c.008.809.02 1.043.066 1.09s.137.051.355.031c.387-.035.43-.098.363-.477-.043-.258-.043-.27.078-.441.07-.102.152-.176.188-.164s.129.137.207.293.242.391.367.523l.219.25h.285c.297 0 .535-.09.535-.207 0-.059-.504-.73-.668-.891-.281-.273-.355-.484-.207-.59a2.55 2.55 0 0 0 .289-.34l.359-.422c.234-.246.188-.289-.312-.289-.23 0-.437.008-.453.023a4.58 4.58 0 0 0-.242.301l-.301.371a1.75 1.75 0 0 0-.164.18c-.078.102-.227.125-.273.055-.012-.023.008-.176.043-.332.102-.422.145-1.516.063-1.543-.121-.039-.77-.059-.82-.023zm.738 2.324c0 .047-.02.094-.039.109-.055.031-.148-.094-.113-.148.047-.074.152-.047.152.039zM13.844 6.645c-.242.039-.52.133-.594.207-.027.031-.066.051-.09.051-.129 0-.723.637-.723.777 0 .023-.031.094-.07.148-.055.082-.074.227-.074.602-.004.5.016.578.227 1.016a2.32 2.32 0 0 0 .547.594 2.57 2.57 0 0 0 1.094.348c.297.023.41-.008.535-.141.055-.055.125-.109.145-.109.027 0 .129.078.219.18.172.172.359.297.461.297.023 0 .164-.121.305-.266.227-.23.258-.277.219-.359-.023-.047-.145-.141-.266-.195s-.23-.133-.242-.168.031-.117.105-.187a1.73 1.73 0 0 0 .227-.305c.094-.164.102-.23.094-.719-.004-.562-.02-.609-.254-.973-.156-.246-.637-.668-.758-.668a.56.56 0 0 1-.164-.062c-.148-.07-.652-.105-.941-.066zm.492.758c.074.02.227.121.352.234.379.363.539.828.43 1.254-.082.316-.125.328-.332.105-.199-.219-.344-.25-.484-.109-.113.113-.109.285.008.379.195.16.254.234.242.305-.012.059-.062.07-.281.063a.94.94 0 0 1-.516-.145c-.422-.23-.609-.516-.652-.961-.051-.461.398-1.055.836-1.121.211-.027.262-.027.398-.004zm0 0"/><path d="M16.328 7.477c-.008.031-.004.496.012 1.043.023.813.039 1.031.105 1.203.246.656 1.07.832 1.574.336.234-.227.332-.219.289.031-.039.238.039.273.438.207l.313-.051a50.2 50.2 0 0 0 .012-1.363l.004-1.355h-.809l-.035.777c-.047 1.031-.039 1.008-.27 1.172-.336.25-.574.168-.77-.262-.066-.141-.078-.285-.07-.918l-.031-.785c-.07-.066-.746-.098-.762-.035zm5.485.007c-.043.035-.102.066-.133.066-.074 0-.402.227-.527.359-.113.121-.172.215-.305.496-.113.234-.125.738-.027.93a.55.55 0 0 1 .066.16c0 .129.469.641.586.641.02 0 .074.035.117.074.113.102.973.113 1.094.012.078-.062.105-.082.449-.277.297-.176.32-.258.109-.43l-.27-.23c-.059-.055-.117-.098-.141-.098-.035 0-.137.098-.219.207a.74.74 0 0 1-.422.227c-.148 0-.52-.27-.523-.371 0-.027-.031-.074-.066-.105-.105-.086-.082-.402.039-.594.191-.301.309-.375.582-.375.219 0 .273.016.461.164l.215.164.133-.148c.07-.082.168-.16.219-.168s.09-.051.098-.125c.008-.09-.035-.156-.215-.312-.129-.109-.258-.199-.297-.199s-.102-.031-.148-.066c-.059-.043-.191-.062-.437-.062s-.375.02-.437.063zm-2.278.114c-.031.016-.027.129.004.332.027.168.047.762.047 1.32 0 1.164-.047 1.055.473 1.074.281.012.313.004.328-.074.012-.051.027-.625.039-1.277l.035-1.293.016-.109h-.449c-.246 0-.465.016-.492.027zm-7.094 3.304l-.273.016.027 1.434c.035 1.609.066 1.887.238 2.02.152.121.457.09.57-.051.121-.156.105-.605-.051-1.52-.039-.25-.043-.348-.004-.387.082-.082.184.051.344.441.113.277.113.277.414.727.195.289.219.309.363.309.176 0 .273-.086.504-.445.133-.207.336-.617.457-.906.035-.09.074-.117.148-.105s.09.039.082.121c-.043.375-.051 1.727-.012 1.809.059.105.289.152.512.102.125-.027.18-.07.238-.184.063-.137.063-.215.023-.684-.035-.383-.035-.82-.004-1.574l.008-1.086c-.023-.027-.215-.039-.441-.031-.391.012-.402.016-.52.152a3.51 3.51 0 0 0-.297.48l-.391.723c-.07.109-.121.227-.121.262 0 .066-.137.203-.199.203-.023 0-.074-.094-.117-.215s-.156-.332-.25-.477l-.215-.352-.152-.289c-.059-.105-.109-.211-.109-.238s-.047-.105-.105-.168c-.082-.086-.148-.113-.254-.109l-.414.023zm3.063.797c.055.145.016.598-.051.598-.027 0-.113-.059-.191-.125l-.137-.133.066-.164c.121-.289.25-.359.313-.176zm-2.508.129c.18.246.172.313-.043.375-.223.07-.258.031-.258-.277 0-.344.098-.371.301-.098zm4.574-.191a1.7 1.7 0 0 0-.281.102c-.035.023-.105.055-.156.078a2.09 2.09 0 0 0-.566.547c-.035.07-.094.258-.129.43-.07.332-.035.605.121.949a1.64 1.64 0 0 0 .578.59 1.91 1.91 0 0 0 .707.164c.203-.004.555-.098.625-.164.031-.031.074-.051.098-.051.031 0 .109-.059.18-.133.07-.066.16-.129.199-.129.207-.004.082-.187-.242-.367-.203-.105-.211-.105-.305-.031l-.121.121c-.016.02-.172.043-.348.043-.281 0-.336-.016-.508-.133-.156-.105-.195-.152-.195-.258v-.129l.758-.008.898.031c.289.074.332 0 .246-.437-.082-.406-.191-.633-.422-.867-.195-.195-.27-.238-.617-.355-.25-.082-.238-.082-.52.008zm.578.758c.137.09.273.383.207.449-.012.016-.148.004-.297-.027-.195-.039-.32-.039-.465-.008-.27.059-.477.059-.477-.008.004-.105.242-.398.391-.477.184-.094.438-.066.641.07zm1.336-.75c-.012.012-.016.602-.008 1.313.02 1.578 0 1.52.492 1.48.176-.012.336-.047.355-.07s.02-.383.012-.789c-.016-.656-.008-.762.063-.891.172-.328.418-.379.641-.141.109.113.109.121.109.922 0 .98.004.984.449.984.176 0 .293-.023.316-.059.016-.023.035-.383.035-.785 0-.844.047-1.008.328-1.16.152-.082.164-.082.277-.008.223.145.258.316.242 1.137-.012.934-.012.938.379.895.16-.016.305-.047.328-.062.039-.039.039-.555.004-1.586-.02-.582-.078-.73-.359-.988-.336-.309-.711-.293-1.125.051-.129.102-.254.18-.281.168a.66.66 0 0 1-.156-.187c-.223-.355-.727-.328-1.086.063-.098.105-.199.191-.223.191-.078 0-.094-.121-.023-.25.051-.098.055-.137.012-.172-.059-.047-.758-.098-.781-.055zm5.391.043c-.301.066-.586.27-.809.57-.285.387-.324.961-.094 1.449.094.203.406.574.484.574.031 0 .074.02.105.051.074.074.43.16.656.16a1.6 1.6 0 0 0 .711-.187 2.37 2.37 0 0 0 .727-.746c.121-.25.133-.773.02-.941-.039-.059-.07-.133-.07-.164 0-.102-.488-.566-.707-.672a2.08 2.08 0 0 0-1.023-.094zm.738.824c.254.211.34.461.258.719-.066.199-.145.293-.355.43-.242.152-.41.133-.648-.07-.246-.211-.344-.508-.25-.746.125-.32.355-.504.625-.504.137 0 .211.031.371.172zm-7.988 3.57l-6.125.066c-.227.18-.332.309-.367.43-.109.359.129.746.516.844.277.066 15.184.047 15.352-.027.063-.027.176-.121.254-.215.121-.152.133-.203.133-.453 0-.27-.004-.285-.176-.457-.102-.098-.223-.18-.273-.18-.746-.016-4.434-.02-9.312-.008zm9.316.32c.133.086.18.152.203.273.035.16-.059.363-.156.363-.027 0-.086.035-.133.074-.074.07-.289.078-2.602.09l-3.734.004-1.691-.004-2.492.004a659.32 659.32 0 0 0-4.027 0c-.594.008-.723-.027-.816-.223-.031-.066-.074-.117-.09-.117-.023 0-.055-.047-.066-.105-.055-.223.211-.43.602-.469.074-.004 3.438-.008 7.48-.008h7.344zm-15.285 2.657c-.09.008-.219.074-.332.164-.187.152-.187.156-.187.438 0 .344.086.508.328.617.176.078.449.082 7.852.086l7.672.008.133-.098c.074-.059.137-.117.137-.145 0-.02.027-.074.066-.117.113-.125.102-.508-.023-.676-.059-.074-.121-.137-.148-.137-.02 0-.074-.027-.109-.062-.059-.051-1.234-.062-7.652-.078-4.168-.008-7.652-.008-7.734 0zm15.238.277c.145.078.23.238.23.418 0 .137-.078.219-.316.328-.145.07-.367.074-2.598.074l-12.477-.059c-.211-.043-.258-.066-.316-.18a.41.41 0 0 1 .266-.633c.074-.023 3.305-.035 7.602-.031l7.609.082zm-15.55 2.887c-.207.172-.207.176-.207.449 0 .184.023.285.066.32.035.031.063.078.063.105 0 .082.191.223.371.273.188.051 10.277.082 10.48.027.113-.023.113-.027.043-.105-.039-.043-.086-.07-.102-.062-.023.016-.094 0-.164-.023-.086-.035-1.535-.051-5.039-.051-3.277 0-4.969-.012-5.07-.043a.56.56 0 0 1-.371-.297c-.086-.168-.008-.406.168-.5.133-.074.504-.078 6.121-.078l7.363-.098c.492-.066-.898-.086-7.105-.09l-6.414-.008zm.179 2.902c-.305.215-.387.34-.387.609 0 .191.023.27.113.387.238.316-.156.289 4.766.313l5.176-.07c0-.023-.145-.051-.312-.07-.312-.027-3.758-.066-5.887-.059a92.92 92.92 0 0 1-2.73-.023c-.488-.004-.699-.09-.84-.336-.109-.187-.07-.344.117-.48l.125-.094 4.895.016 4.891-.051c0-.086-.133-.113-.566-.113-.203 0-.617-.02-.91-.043s-2.285-.055-4.422-.062l-3.875-.02zm.633 3.18c-.535.07-.703.125-.648.219.02.031.168.031.406.016.203-.023 1.922-.031 3.816-.031l3.391-.09c-.543-.094-6.402-.187-6.965-.113zM9.23 29.797c.004.043.172.238.277.316.082.063.082.063 0-.066-.152-.238-.281-.352-.277-.25zm.52.59c0 .023.227.25.426.426.125.113.223.152.223.086a1.24 1.24 0 0 0-.379-.312c-.023 0-.074-.047-.113-.105-.062-.094-.156-.148-.156-.094zm1.625 1.019c.121.051.273.051.305 0 .016-.027-.055-.043-.184-.039-.156 0-.187.012-.121.039zm16.141-2.894a1.99 1.99 0 0 0-.391.121c-.215.102-.617.094-.578-.008.016-.039-.027-.055-.145-.043-.242.016-.301.055-.453.27-.117.168-.133.227-.121.457l.02.742c.016.52.031.57.297.844.145.152.367.168.559.031l.125-.09.25.113c.223.098.313.113.715.113.375 0 .461-.016.461-.066 0-.035.059-.074.152-.09.082-.012.164-.043.176-.066s.09-.066.176-.105c.148-.074.152-.07.258.027.305.305.227.277.926.277.629 0 .648-.004.746-.105.203-.219.223-.297.117-.551-.086-.211-.09-.25-.039-.406.055-.148.047-.187-.012-.297-.078-.129-.102-.344-.035-.344.023 0 .07-.062.109-.129.109-.215-.023-.496-.301-.641-.094-.047-.27-.062-.676-.062-.5 0-.555.008-.68.098-.078.059-.137.129-.137.16s-.039.074-.09.098c-.062.035-.129.023-.312-.07-.125-.07-.246-.148-.27-.18a.49.49 0 0 0-.238-.07l-.305-.035c-.062-.016-.195-.008-.305.008zm.738.359c.449.215.707.73.594 1.215-.07.297-.379.609-.645.645s-1.008.051-1.059.02-.074-1.883-.023-1.949c.063-.074.945-.016 1.133.07zm2.395.063c.078.266.051.281-.523.27l-.508-.02-.012.203-.012.199.422-.023c.461-.023.5-.012.555.207.02.074.012.133-.023.152s-.258.027-.504.023l-.445-.012v.195c0 .125.02.199.055.203a7.9 7.9 0 0 0 .516-.004l.465-.008.027.148a.63.63 0 0 1 0 .246c-.027.086-.055.098-.227.07-.109-.012-.43-.027-.707-.027h-.512l-.016-.98.012-1.004c.016-.012.34-.012.715 0l.684.023zm-4.062-.012c.031.031.039.352.02.973-.016.84-.027.93-.094.941-.043.008-.133-.023-.207-.078-.117-.082-.133-.113-.133-.312a13.16 13.16 0 0 0-.051-.859c-.051-.613-.047-.637.035-.703a.43.43 0 0 1 .43.039zm0 0"/><path d="M27.504 29.238c-.008.016-.008.273.008.57l.027.539.301-.012c.293-.012.313-.02.445-.172.297-.336.117-.828-.32-.891l-.328-.051c-.059-.012-.121-.008-.133.016zm-4.594-1.054c-.043.117-.039.938.008.938.082 0 .117-.496.059-.844-.027-.129-.039-.152-.066-.094zM1.789 28.5c-.012.035-.004.086.027.113.035.035.047.02.047-.066 0-.129-.031-.152-.074-.047zm.137.668l.063.406a4.08 4.08 0 0 0 .145.559l.336 1.047c0 .023.109.273.238.551l.238.535c0 .035.309.438.52.691.051.055.09.129.09.156s.047.109.102.18a1.82 1.82 0 0 1 .223.375c.059.133.148.258.187.27s.16.113.266.219l.34.324a1.03 1.03 0 0 1 .188.234c.02.055.063.102.094.102s.105.047.16.105.121.109.152.109c.023 0 .191.133.363.293.246.23.313.313.289.379s.004.105.129.16c.086.039.215.074.293.074.125.004.129.008.066.059-.105.078-.051.117.117.086.102-.016.176.004.301.086.09.063.199.113.242.113s.219.07.391.152l.367.148a2.01 2.01 0 0 1 .539.285.21.21 0 0 0 .16.035.11.11 0 0 1 .145.07c.047.086.055.086.102.02.055-.066.066-.066.191-.004a.66.66 0 0 0 .246.07c.074 0 .121.031.148.094.027.078.039.082.063.023.027-.078.141-.102.168-.039.008.027.551.137.902.184.164.023.605-.008.605-.043 0-.016-.148-.047-.328-.059s-.352-.043-.379-.07-.133-.047-.238-.047a1.79 1.79 0 0 1-.41-.066l-.941-.309c-.062-.031-.152-.059-.207-.059-.098 0-.121-.008-.391-.141a.8.8 0 0 0-.191-.074c-.027 0-.191-.066-.363-.148l-.359-.152c-.027 0-.047-.02-.047-.039s-.055-.051-.113-.066-.137-.047-.16-.07a8.09 8.09 0 0 0-.641-.402c-.285-.16-1.371-1.113-1.719-1.5-.09-.105-.176-.191-.195-.199-.078-.035-1.004-1.289-1.086-1.477l-.184-.324-.195-.367-.082-.191a3.86 3.86 0 0 0-.195-.41c-.086-.18-.156-.367-.156-.418s-.016-.109-.043-.121c-.02-.016-.043-.094-.043-.168s-.031-.18-.062-.227-.066-.113-.066-.145-.031-.121-.07-.195a1.02 1.02 0 0 1-.09-.312c-.012-.105-.051-.207-.082-.23s-.062-.086-.062-.129-.02-.094-.047-.109c-.035-.02-.043.012-.02.117zm34.504.105c-.016.02-.031.063-.031.102 0 .047.016.051.051.016.023-.023.043-.066.027-.098-.008-.027-.027-.035-.047-.02zm-.121.301c-.012.02-.039.094-.055.16s-.051.117-.07.117c-.027 0-.043.055-.043.121a.39.39 0 0 1-.062.203 1.18 1.18 0 0 0-.086.289c-.016.113-.047.215-.074.23-.02.016-.039.074-.039.129s-.016.113-.039.125-.082.117-.133.234l-.152.32c-.035.07-.066.152-.066.184s-.055.145-.129.25-.129.211-.129.238c0 .02-.031.063-.066.094a.79.79 0 0 0-.195.367c0 .031-.027.063-.062.082-.035.012-.066.051-.066.086s-.027.082-.055.098-.152.16-.27.316c-.262.34-.316.402-.891.973-.25.254-.523.504-.609.559a4.49 4.49 0 0 0-.363.281 2.11 2.11 0 0 1-.312.227c-.054.024-.102.063-.102.078s-.09.078-.203.133l-.227.125c-.016.016-.117.07-.242.133l-.238.129a1.38 1.38 0 0 1-.203.109l-.445.238a2.37 2.37 0 0 1-.184.082c-.066.027-.121.063-.121.078s-.148.074-.332.133l-.391.141a.63.63 0 0 1-.25.051c-.109.004-.219.039-.238.066s-.121.074-.223.094l-.535.098-.5.113a1.89 1.89 0 0 1-.359.043c-.262 0-.266.098 0 .121.207.016 1.184-.148 1.242-.207.027-.027.117-.043.211-.043.113 0 .176-.023.195-.07s.055-.059.109-.043c.148.039.738-.109.809-.195.031-.047.086-.082.117-.082a1.35 1.35 0 0 0 .434-.219c.012-.023.063-.039.117-.039a.33.33 0 0 0 .176-.066c.043-.035.113-.062.148-.062s.133-.062.223-.129c.094-.074.195-.129.234-.129s.082-.031.098-.066.051-.062.086-.062.074-.027.09-.059.184-.125.363-.211.355-.191.387-.227.086-.066.129-.066.102-.031.133-.066.074-.062.094-.062c.074 0 .297-.191.297-.25 0-.066.117-.187.465-.473.102-.086.184-.172.184-.195 0-.039.539-.578.777-.773.047-.039.105-.148.129-.242a.59.59 0 0 1 .133-.246c.055-.043.078-.109.066-.137-.023-.062.238-.445.406-.594.047-.047.09-.109.09-.148s.051-.145.109-.23.121-.223.141-.301c.012-.078.074-.23.129-.332a.92.92 0 0 0 .098-.355c0-.09.02-.176.047-.187.063-.043.258-.453.258-.559a.24.24 0 0 1 .047-.141c.024-.024.039-.129.031-.234s-.027-.172-.039-.145zM6.805 33.172c0 .051.168.148.199.121.012-.012-.031-.055-.094-.094s-.105-.051-.105-.027zm2.816 1.644c0 .02.039.043.09.043s.074-.023.063-.043c-.016-.027-.059-.047-.094-.047s-.059.02-.059.047zm16.684.516c-.055.035-.039.043.055.043.07 0 .113-.016.094-.043-.031-.051-.066-.051-.148 0zm-2.817 1.945c-.152.027-.152.027.043.039l1.387.027 1.234.016c.238.008 1.004-.055 1.039-.09.047-.047-3.437-.039-3.703.008zm-1.386.039c-.094.027-.098.035-.035.063.094.043.254.016.254-.039s-.086-.066-.219-.023zm-9.493.086c.063.039 1.859.02 1.902-.02.008-.016-.43-.023-.973-.023l-.93.043zm0 0"/><path d="M14.664 37.395c.023.039.586.027.625-.012.012-.016-.125-.023-.312-.023s-.324.02-.312.035zm1.324.007c0 .059.09.059.176 0 .051-.035.039-.043-.051-.043-.07 0-.125.02-.125.043zm.848 0c.012.023.055.043.09.043s.063-.02.063-.043-.039-.043-.094-.043c-.047 0-.074.02-.059.043zm0 0"/></svg>