<svg xmlns="http://www.w3.org/2000/svg" viewBox="0 0 720 720">
  <path stroke="#000" d="m260 32 3 1h-3zm112 90 3 1h-4l-1 8-2 3 1 1q-4-2-4-7zm-5 6q-1 4 2 3 1-4-2-3Zm74-3h12l1 2v7l-1-8-7 1q-2-3-4 2v8h-2zm-60 9-2 3-6 1v-1q3 1 2-1h2zm29 7 2 1h-2zm-32 2q5-2 4 2l-1-1q-4 1-3-1Zm106 0v2l-2 1zm-81 1-1 2-2 1 1-2zm77 3 2 1-2 1zm-16 5v2l-4 3-1 2h-2zm-161 3v4h-1zm123 1q2-1 1 2zm16 3v12h-1zm-139 2v3h-1zm-14 3v5l-1 2-1-1zm-14 2h4l5 6q1 2-2 1v2q-4-1-3 2l1 2q-3 1-2-1l-2-4-3-1-1-3zm151 7 6 6q1 2-1 1l-6-2 1-2-7 3v-1zm-84 2-2 3zm-4 3-1 2h-3zm-43 2 8 5v4l-6 7q-7 1-9-3l1-3-1-2h1q-1 3 3 1l2-6q3 1 2-2zm-11 8q3-1 2 2l-1-1zm6 15-1 2zm-2 3-1 2zm-2 3-1 2v1l-1-1zm-2 4-1 2zm-2 3v2l-2 1zm137 0 2 1h-2zm-29 1-1 2-7 6q1 2-2 1v-2q3 1 2-1zm27 0-1 2-8 5 1-2zm58 0 3 2-1-1q-3 1-2-1Zm18 16q2 3 1 10h-1zm-165 4 8 1q-7-1-10 2l-3-1zm-16 2v4h-1zm13 4 2 2h-3zm5 0 14 2h-11l-3-1zm67 7v6h-1zm80 0-1 2zm-3 2-1 2h-3zm64 163 1 1-5 2v-1zm-15 5 3 1h-3zm-4 1 2 1h-2zm-10 1 5 1h-5zm-1 37-2 3zm-33 35-1 2zm-3 3-3 4zm-20 22-1 2zm-4 4-4 5zm-16 17-1 2zm-3 3-1 2-1 2-3 2q1 2-1 1zm-7 8-1 2zm-87 33 3 1h-3zm44 8v2h-2zm-13 2 9 1-17 1v-1q6 2 8-1Z"/>
  <path fill="#2A2A2A" stroke="#2A2A2A" d="m259 32 4 1 4-1q9 3 14 11l5 10v6h49l1-1 2-11 5-8 10-6 10-1q8 3 13 9l4 6 2 5v6l2 1h8l1-1h42l1-1q0-15 10-20 5-5 15-5l14 8 4 7 2 11 3 1h16l20 6q21 10 35 28l7 7 14 13 2 3 24 30 10 19 5 17 2 2v2l1 5v2l1 4-1 2 1 4-1 4-1-6-1 9v4q-1 2 2 1l1-3q3 2 2 9-2 1 1 3v3l-1-2-1 6h-4v-1h-1l-1 5 1 2-1 5 1 1 1 12q-3 1-2 5l-2-54-1-1-1-13-2-4 1-2-8-20-7-13q-10-17-23-30-3-1-2 3l2 5 1 14 1 1v227l-1 1v9l-3 15-10 21-51 57-4 3q-24 29-52 55l-8 11-20 20-3 2-3 4q-11 11-25 18h-2q1 2-2 1l-12 4v-2l-1 3-12-1-9 2 5 1h-14l-3-1h-94l-1 1h-15l-1-1-14-1-14-4-15-8-16-12q1-3-1-2-12-12-19-29l-4-12-3-17V157l1-1v-19l3-14-7 4-10 15q-3 1-2-2h2l-3-1 1-3-3-1-2 3h-2l12-16 14-14 14-12q5-10 14-17 11-10 27-16l14-4q13 1 20-1 0-17 12-23zm197 12-2 1-4 5q2 6-1 8v14l1 1q-2 8 1 12l5 3 6 1 5-8V55l-2-8q-2-4-9-3Zm-195 1-2 1-2 2q1 4-1 6l1 32 6 2 6-1 3-3q-2-7 2-8l-1-2V56l1-1-2-5q-3-5-11-5Zm95 0-3 1-2 7v22l2 11 5 2 6-1 3-3 1-5V51l-1-2q-3-5-11-4ZM229 70l-1 1-11 1-14 5h-2l-1 2-16 10q-18 17-24 47v371l1 1 2 18 4 12 9 16q14 17 37 26 4-1 3 2l3-1 16 3h31l1-1q6-2 8 1h54l1 1 2-1 3 1 4-1q6-2 8 1h17l8-2 16-9q9-9 14-22l2-11v-35l1-1v-33l1-1v-9q5-20 16-32 12-14 33-19h43l1 1 1-1 18-1 9-2 18-8 10-11 6-13 2-11V144l-6-25-10-18q-13-17-33-26l-13-4-21-1v12l-6 12-11 6q-12 1-17-4-7-5-10-13v-9l1-1v-3h-57l1 4q1 10-3 16l-2 1v2q-4 5-11 7-12 2-17-3-9-5-11-15-1-8 1-11l-5-1q-5-1-6 1h-24l-1-1h-17v15l-3 6q-4 6-12 9h-11l-9-5-5-4-4-11 2-9-5-1zm318 342-3 1h-2l-2 3-2-1v2l-1-1-4 1v2l-3-1v2l-3-1v2l-4-1v2l-2-1-4 2-3-1q-5-1-6 1l-50 1-15 4-7 4q-15 12-19 34l-1 73-5 20q-1 2 2 1l9-10q3 1 2-1l3-2 1-2v-2l13-13h1v-2l25-27 20-19-1-1 15-15q2 1 1-3h2v-1q20-18 36-39 2-5 4-2l4-5z"/>
  <path fill="#2A2A2A" stroke="#2A2A2A" d="m371 122 4 1 2-1 3 3q-1 2 2 1 2 1 1 7l-2 3-2-1-2 1h-2q1 2-2 1l-2 1-4-5 1 1 1-2-2-1q-1-4 2-3l1 3 1-7zm-2 1-3 4zm72 2v6h-1zm13 0q3 2 1 9l-1 1v18l-1 6 3 1 13-15 1 1 1-4h13l1 3q-1 3-5 2l1 2h1l-12 15 17 24q-3 4-13 2-9-7-13-18h-2l-5 5v12l-2 2h-9l-1-1-1-1v-17l1-1v-11l-2-10v-13h2v-8q2-5 4-2zm0 1-1 8h1zm10 26-2 2h2zm-4 4-2 3 2-1zm-195-30h11l8 2 11 9q5 4 7 13-2 1 1 3l-1 6 1 2-1 3 1 2q-3 9-9 15h2v2q-3-1-2 2l-2 4q-4-1-3 2-1 3-3 0 1-4-2-3-4 6-14 5-2-2-6-1l-12-5-9-8-5-12v-15q3-12 12-19zm3 13-7 3q-8 5-10 15 0 10 5 16 5 5 14 7h7v-2h1q-1 2 2 1l-1-2q-1-3 3-2v-2q3 1 2-1l-4-6 6 5h2l-1-2 1-2v2h1l-1-14-3-6q-4-10-17-10Zm144 1q6-1 9 2h2q8 1 11 8 2 4-1 3l-5 4-2-1v2l-8-5h-6l-8 6q-3 3-2 11l6 8h2l7 1h3v-2l3 1 3-2v2l2-1v2l4 1-1-2 4 3-1 2-3 2h-2l-1 2h-2q1 2-1 1-5 4-13 4l-10-3-9-7q-5-7-5-18 3-11 10-17l4-1v-2l1 1 1-2 1 1 1-2 2 1v-2l4 1zm-102 1 13 1v28l7 10 4-1 3 1 2-3q1 3 3-1l2-7v-27h14v48l-3 1h-2l-6 1-3-8-4 1-3 5q-5 3-13 2-8-2-11-7l-3-10zm58 2q9-1 14 3v43l-1 3h-10l-2-1-1-2-1-43zm-248 5v4l-2 1 1 1q-3 1-2-1zm-3 7 2 1-1 3-2-1-2 1zm-4 9v2l5-2 1 3-6 3-1 5 3 1v2q-2-3-3-1l-4 2 1-2h1l-2-1v-4h2v-2zm312 9-3 4zm2 0 1 2zm-151 1 1 2zm-167 6 2 1-1 4 1 2-2 3 1 3-2 6v14l-1 1v196l1 1v10l-1 11 1 1v30l-1 1v16l1 1v15l1 1 1 13 10 31q12 27 33 46l3 3q-1 2 2 1l9 8h2l5 4 12 6 25 9 23 4h10l1 1h51l1-1h36l1 1h49l5-1q1 3 7 1l3-1h14l1 1h76l24-5 19-7 14-7q17-11 30-25-1-3 2-2 2-1 0-2l9-9 5-7 10-22v-3l4-7q1-8 4-12l1-9 2-5q-1-5 1-6v-17l1-1 1-61v15l1 1-1 1v14l1 1v23l-1 4 1 2-1 2 1 2-1 2 1 2-1 3v2q-1 2 2 1v7h2l2 7-4 15-1-2-3 7h2q-13 45-45 71l-19 14q-18 10-39 17l-20 4-22 1-1 1h-36l-1-1h-47l-1 1h-19l-1-1h-32l-1 1h-81l-1-1-22-1-16-3-28-9q-29-14-49-37l-15-21-10-20-8-25-3-16v-7l-1-1V233l1-1q-2-9 1-12-2-2 1-3v-4l-1 2-1-3q3 1 2-2l-1-1v-9q3 1 2-1l-1-2 4-7v-2l1 1q-1-7 3-9Zm192 3 1 2zm-7 13 2 1h-2z"/>
  <path fill="#2A2A2A" stroke="#2A2A2A" d="M244 202q5-1 7 1l7 14v2l2 1v1l2 2v1l2 2 6 9h2v-2l3-7h2q-2-2 1-3-1-3 2-2v-2h1v-2l1 1-1-2 2-1v-2l1-2 1 1-1-2 3-2q-2-2 1-3l2-1 1-2h11l1 2v59l-2 3h-8l-2-1-1-3v-32l-4 3q-5 13-14 22l-2 1-7-5q-7-9-11-21-4-2-3 4l1 1v28q-1 4-8 2l-4-3-1-4-1-53 2-2q4 1 6-1Zm91 13q13 0 18 9 7 7 6 21h-14l-1-1-14-1v1l2 1h-4l-3-2-1 2q3-1 1 4 3 1 2 3l12 3 6-2 3-3 7 5 1 2 1-2v2l-12 8q-6 3-15 1-10-3-15-10-3-5-4-12l1-4-1-3 3-9q3 1 2-2 6-9 19-11Zm-3 11q0 3-2 2-6 3-6 9l3 1-4 1 3 1q3-3 10-2l-2-1v-1l12 1-2-6-5-4q-6 2-7-1Zm34-10h13l1 2q-2 1-1 6l1 2q3 1 2-1v-2q1 3 3-1-3-2 2-4l2 1v-2l1 1q-1-3 2-2l2 1 5-1 5 5 2 2 3 1 2-4h3v-2l2 1v-2l1 1 1-2 3 1 2-1h2l7 5 5 10v34q-3 2-11 1l-1-3v-27l-5-7q-7 0-9 5l-2 5v25l-1 1-7 1-4-1-1-8q2-2 1-6l-1-1v-14l-2-5-7-2-7 8v27l-1 1-9 1-3-2-1-5zm98 0q4-1 6 1l4-1q-1 3 3 2h2q2-1 1 2l3 1 1 1 1-1 3 4 5 8-1 4 2 6 1-5v7h-2l1 3-2 1 1 1-2 1q3 1-1 3l-6 7-7 4q-2-2-3 1-20 2-26-9l-5-11v-10l7-13 6-4zm2 12-4 2-6 8 1 9 5 6 2-1v2l3-1 6 1-1-1h2v-1h2l2-3q-1-3 2-2v-2q1-8-2-11l-7-6zm157 4v3h-1zm-2 19 1 4q-4 1-1-4Zm-5 12v6h-1zm0 8v4h-1zm-1 8q3-1 2 2l-1 4zm1 24v4h-1zm0 9q2-1 1 3v2l1 5v1q3-1 1 4l2 4-2 8q-4-2-3 3l1 2v2l1 5-2 4-2-7 1-4-1-1v-29zm0 46q2 1 1 5l-1 3 1 2q4-2 3 3l-1 4q-4-1-2 4 3-1 2 4l1 4-1 4q-3-1-2 4l-1 1v15l-2-31 1-4-1-1v-13zM367 595l6 1h-6z"/>
  <path fill="#545454" stroke="#545454" d="m250 37-4 5zm27 0 3 4zm69 0-1 2zm126 0 2 3zm-28 1-2 3zm-101 2-2 3zm34 1 1 2zm99 0 1 2zm-194 2 1 2zm182 2 1 2zm-99 1 2 3zm-95 1 2 3zm82 5v9h-1zm129 0v3h-1zm-240 1v5h-1zm16 0v16h-1zm179 0v4h-1zm-149 1v5h-1zm96 0 1 5-2-1zm84 0v6h-1zm-131 3-1 2zm114 0v15h-1zm-223 1 10 1h-10zm84 0 15 1h-15zm76 0 5 1h-5zm97 0 2 1h-2zm-132 7v10h-1zm115 1v15h-1zm-238 4 3 1h-3zm44 0v7h-1zm21 0 8 1h-8zm34 0 5 1h-5zm65 0 31 1h-31zm98 0 2 1h-2zm-123 1v8h-1zm-181 2-1 2zm99 0v10h-1zm51 2v5h-1zm99 0v4h-1zm-54 1v3h-1zm-200 1-1 2zm358 0 1 2zm-187 2v5h-1zm98 0v4h-1zm-209 1v3h-1zm30 2v2l-2 1zm274 0 8 9zm-17 1 1 2zm-77 1 2 3zm-263 1-2 3zm165 0 1 2zm179 1 2 3zm-270 1 4 1h-4zm95 0 4 1h-4zm-187 1-3 4zm13 1-1 2zm194 1-1 2zm-36 1 4 5zm134 0-1 2zm-229 1 1 2zm33 1-2 3zm276 0 6 7zm-390 2-1 2zm12 0-1 2zm195 0-1 2zm74 1 1 2zm98 2 2 3zm-283 2 5 1h-5zm303 1 3 4zm-407 2-1 2zm414 4 6 7q-3 1-2-1zm-424 4-10 11-8 11 2-3q6-12 16-19Zm431 4 4 5zm5 6 4 5z"/>
  <path fill="#545454" stroke="#545454" d="M151 123q2-1 1 3l-1-1-8 7-16 22-8 16-8 24-2 18-1-13 2-8v-2l1-3-2-6-3 3v6q-4 2-5 9l1 2-2 1v8l1 3q-3-1-2 3h1l1-2v4q-3 1-1 3l-1 12-1-22 4-22 6-15v3l4 1 3-1-3-1 3-7 4-1-1-3-5 2v-2l-4 7 1 1q-3 1-2-1l10-20 2 1-1-4 7-10q3 1 2-1h-2q2-5 4-2l3 1-1 3 4 1 9-13zm-18 17q-1 3 2 2 1-3-2-2Zm-15 12q-2 3 1 2zm-1 3-2 3 3 1 1-3zm263-32 2 3zm191 0 3 2 13 15-6-5-8-11-1 2z"/>
  <path fill="#545454" stroke="#545454" d="M151 127v3h-1zm422 0v3h-1zm16 0 2 3zm-427 2v3h-1zm412 2v5h-1zm-424 1v4h-1zm443 0 3 4zm-138 2v9h-1zm-294 1v12h-1zm207 0 1 2zm194 1v3h-1zm-266 1 1 2zm301 0 3 5-2-1zm-352 1-1 2zm330 1v6h-1zm-426 2v15h-1zm161 0v4h-1zm175 1 1 2zm104 0 1 2zm-26 1v24h-1zm38 0 1 2zm-201 2-1 2zm191 0 1 2zm-267 1v19h-1zm160 0-1 2zm109 2 1 2zm11 0 2 4-2-1zm-163 2v4h-1zm39 1-1 2zm115 0 1 2zm-251 1v17h-1zm110 1v6h-1zm153 0 5 11h-1zm-176 1-1 2zm-193 1v8h-1zm170 0-3 4zm-156 1v6h-1zm52 1v6h-1zm64 1v19h-1zm107 0-2 3zm124 0 4 9h-1z"/>
  <path fill="#545454" stroke="#545454" d="M148 163v348l3 17 4 12q7 17 19 29l3 2q13 15 34 22l15 3h8l1 1h15l1-1h94l3 1h14l1-1 15-1 18-6 9-6-1 3 5-2 2-4-4 3 3-4 11-9 2-3 3-2 54-57-22 23-2 3 1 1-4 2-1 3q-3-1-2 3-3 1-1 3 1 2-1 1l-4 2 1 1-4 2 1 1-3 3-2-1-3 4 2-1 1 3 2 2-4 1 1 5v2l-2 6h-2q1 3-1 2v2l-1 3q-4-1-3 2l-2 3 1 1-3 2-4 6-4 1 3 2-1 2 3 4q4-1 2 3h4q-1-3 2-2-1 4 2 3l1 1h6l1-2v4q5-1 7 2h5l2 2h17l2 1q-1-3 2-2l16-3 1 1h9l8-2h8l2-2 15-3q1 3 3-1 23-10 38-27l14-16 6-10 13-30 4-15 2-10v-9l1-1 1-91-1-1v-37l1-4-1-1v-43l1-1 1-89 1 38 2-8-1-1-1-13 1-2-1-2 2-5v2q6 2 4-5h1l1 1v-3q-3-2-1-3 1-7-2-9l-1 3q-3 1-2-1v-4l1-9 1 6 1-7-1-2 1-3-2-3 1-2-1-5-2 1 3-2 5 26v271l-1 1v17l-2 10-1-3 1-3-2-5h-2v-7q-3 1-2-1v-2l1-4-1-2 1-2-1-2 1-2-1-4 1-1v-23l-1-1v-31l-1 61-1 1v17l-3 11v5l-5 16-14 32-14 16q2 1 0 2-3-1-2 2-13 14-30 25l-14 7-19 7-24 5h-74l-3-1h-14l-1 1h-2l-11-1-1 1h-49l-1-1h-36l-1 1h-51l-1-1h-10l-23-4-12-5h-3q-23-8-40-22l-2-4-13-11q-14-18-23-40l-8-26v-6l-2-8v-12h1l1 19 5 19 2 1-1 2 6 18 15 24 1-2 4 5v2q-2 1 1 3l1 1 2-1v4q3-1 2 2 3 5 9 6l2-10 1 1-3-8-6-9v-3l-3-6v-10l1-2q-3-2-1-8 4-2 1-3l-1-14-1-1zm475 69-1 3h1zm-2 19q-3 5 1 4zm-5 12-1 6h1zm0 8-1 4h1zm-1 8 1 6 1-4q1-3-2-2Zm1 24-1 4h1zm0 9-2 2v29l1 1-1 4 2 7 2-4-1-5v-2l-1-2q-1-5 3-3l2-8-2-4q1-5-1-4v-1l-1-5v-2q1-4-1-3Zm0 46-2 4v13l1 1-1 4 2 31v-15l1-1q-1-5 2-4l1-4-1-4q1-5-2-4-2-5 2-4l1-4q1-5-3-3l-1-2 1-3q1-4-1-5ZM433 560l-1 3-4 4 2 1 3-1-1-1 2-1q1-4-1-5Zm-3 2-2 3 2-1zm-17 38v2l2-1zm-237 1q0 3 5 4l3-1zm10 3-2 3q6-1 9 3v-1l1-2q-5 1-4-1-1-3-2-1zm343 5-1 2 3-1zm-5 2v1h2zm-308 5v2q5 2 14 1l1 1h9l1 1 5-1 4 1h20l1-2-4 1-4-1h-28zm147 0-9 4q-7 2-8-1-7-1-10 2h54v-2q-9 2-12-3zm140 1q-2 3-7 1l-4 2-3-1-1 2 17-2 3-1zm-180 2v1h2zm8 0 2 2q1-3-2-2Zm129 0v1h5zm13 2v1h3zm140-456 6 18-2-1zm-9 3 1 4h-1zm-128 3 2 3zm-219 1 1 2z"/>
  <path fill="#545454" stroke="#545454" d="M359 173v11h-1zm46 0 1 2zm201 0 1 4h-1zm-264 1-2 3zm88 1 1 2zm50 1 1 2zm128 2 3 9-2-1zm-167 1v3h-1zm-196 1 5 6zm98 4 2 2v1l-1-2-4 3zm126 1 4 5zm-153 2 1 2zm247 0v80h-1zm-259 1-3 4zm-22 1-1 2zm87 0 1 3-2-1zm85 0-1 2zm22 1 4 1h-4zm136 1v4h-1zm-323 2 1 2zm10 1-1 2zm314 2v6h-1zm-324 7-1 2zm15 1v27h-1zm310 1v6h-1zm-506 8v197h-1zm313 2 2 1h-2zm-41 3v3h-1zm-58 2-1 2zm83 1 1 2zm28 0 1 2zm20 0-1 2zm-216 2v12h-1zm117 1 1 2zm96 0-1 2zm39 1 1 2zm-173 1-1 2zm27 3 1 2zm-93 1v4h-1zm212 0-3 4zm13 0 3 4zm-148 1-1 2zm111 2v30h-1zm-92 1v3h-1zm-15 2 2 1h-2zm79 2v8h-1zm-312 4v33h-1zm153 3v16h-1zm53 1v16h-1zm174 2-2 3zm-213 4 2 3zm10 0-2 3zm217 0-1 2zm-156 2 3 1h-3zm153 2-3 4zm-172 1 4 5zm50 2v3h-1zm84 0 1 2zm32 2-1 2zm-244 1 2 3zm11 1-1 2zm-7 2 3 1h-3zm333 0v16h-1zm-241 1 3 1h-3zm131 0 5 1h-5zM98 291v36h-1zm478 12v5h-1zm-13 4v24h-1zM98 329v10h-1zm478 6v32h-1zm-13 21v9h-1zm12 17v8h-1zm-1 10v5h-1zm-19 5-1 2zm18 1v5q-2 11-8 19v-1q6-10 8-23Zm-20 2-8 9zm-195 11 4 1h-4zm144 8 5 1h-5zm45 2 1 4h-1zm17 2-1 2-3 5 1-2zm-5 8-4 5zm-130 1-1 2zm43 0 9 1h-9zm14 0 23 1h-23zm54 0-1 2zm-82 1 2 1h-2zm-297 1v68h-1zm375 3-1 2zm18 0-7 8-37 41-3 2 2-3 2-1zm-446 1v3h-1zm314 1-2 3zm14 2-2 3zm-6 6-1 2zm96 1-15 16zm-99 4-1 2zm-2 3-1 2zm-317 17v17h-1zm298 0v8h-1zm96 1-11 12zm-84 1v5h-1zm-13 11v29h-1zm101 4-7 8zm-20 1-9 10zm12 8-12 13v1l-1-1zm-399 3v7h-1zm62 3v12h-1zm-61 5v5h-1zm367 1-2 3zm-366 6v3h-1zm520 3v3h-1zm-519 1v3h-1zm60 0v4h-1zm255 0v21h-1zm41 0-6 7zm-295 6v4h-1zm454 1 1 4-2 7-1-2 1-2h-2zm-123 4q7-2 4 6l-3 7 1 2-1 6-2-8q3-2 1-8l-1-3h-2zm53 0 8 1h-8zm-383 1v3h-1zm361 1 4 4-1-1zm-83 4-7 8zm-335 1v3h-1zm402 2 11 1q-1 3 2 2l2 5-5-4-8-1-2 1zm47 0 8 1-2 5-2-1h-14q-2-5 6-3zm-448 2 2 7h-1zm296 1v7h-1zm134 1v12h-1v-3q-3 10-10 14l-2 1h-20v-1h17l9-6q4-5 3-14v-2l3 3zm-122 4v4h-1zm12 4-4 5zm119 1h17v2l-1 5-2-1h-14zm6 4v1h3zm-439-1 5 11-2-1-4-8zm59 0 1 2zm249 2-3 4zm185 1-1 2-1 2v-1zm-430 3 3 4zm264 4q2-1 1 2zm-29 1 2 1-3 1zm75 0 2 2h-1zm14 0 2 1h-2zm39 0 18 1q-2 3-8 1l-1-1h-9zm20 1 2 1h-2zm42 0-1 2zm-481 2 3 5-2-1zm479 1-1 2zm-205 2-1 2zm-206 1 1 2zm248 1 4 2h-4zm-312 1 1 2zm268 0-1 2zm-266 3 2 3zm264 0-3 4zm204 0-1 2zm-394 3 1 2zm-71 1 2 3zm256 0-2 3zm205 1-2 3zm-458 3 2 3zm247 0-1 2zm206 3-14 15zm-351 2 31 1h-31zm40 0 56 1h-56zm72 1 2 1h-2zm15 0 2 1h-2zm-223 1 1 2zm290 1 2 1-2 1zm-287 2 7 8zm428 8-2 3zm-416 3 1 2zm412 0-2 3zm-408 3 2 3zm404 0-1 2zm-4 3-1 2zm-395 1 1 2zm3 2 1 2zm479 4-1 2zm-7 8-1 2zm-554 1 2 3zm552 2 1 5-5 7q1 5-2 7 2 1 0 2l-4 3q2 4-1 3l-3 1q1 5-2 6l-4 1 1 2 2 1-2 1-4-2-2 4h2l-5 5v2l-6 2q1 3-2 2l-4 1-8-2 3 6v2l-2-3-14 8q-3-6-6 0v3l-3 5-5 2-5-2-1 2 3 1-1 3q-4-1-3 2l-4 2-5-2q2 5-2 4 1-4-2-3v3l-3-4-3-1-1 2 3 1v1q2-1 1 2l-2 1v-2l-12-8-1 2q3-1 2 2l2 3q-4 2-3-1h-1q1 2-1 1-2-4-4 0h-9l-1 3-1 2-2-1q-2 2-6 1l-4-1-1-3q-6-2-5 3l-1 2-3-1-3 1-3-1 1 3h-1q1-3-1-2l-2 3-1-2 1-2h-3q2-4-1-3l-3-1-1 4-5-1-2 1-6-1q1-3-1-2h-2q-3-1-2 3l1 1-6-3-1 2-3 1-2-4-6-1-3 2q1-3-1-2l-3 2 1 2-7-3-2 1-2-3-3-1-4 5-5-2-3 1v-2h-2l-3 1-3-2-4 2-2 4q-3 1-2-3h-3v2l-7-1-1-3q-5-2-4 3l-3 2-5-2-3 1-2-4-3 1-2-1-2 3h-2l-4-2-2 1-7-2-4 2h-2l-1 2-2-4-1 2q-3 1-4-2h-5l-1 3h-4q-1-3-5-2-2 4-4 0l-5-1 1 6-1-1-5-3-1 2q-5 1-8-2 1-3-5-2l-4 3-3-1v3l-3-1q1-3-1-2h-2l-1 2-3-4-3-1-3 4-3-1 1-2-5 3-5-3-2 1v-2h-6l-1-1-2-1q1 2-1 1l-3 2h-11l-2 2v-2h-8l-2-1v-2l-1 3-4-6-2 3-4-2q1-3-2-2l-4-2q1-5-4-3 1 3-3 2v1l5 2q1 3-3 2 1-3-3-2l-3-5q-3-1-2 2h-3l-4-5-2 3h-2q2-4-1-3l-3 1-7-4-3 1q-3-1-1-2v-3h-6l-4-3-3 1-4-12-4-1q1 3-1 2l-7-2q1-4-4-2v-5q-4 2-3-1l-1-3q-3 1-2-1h-1q-3 1-2-1l1-3h1l-8-2q1-5-3-6 2-2 0-3h-2l1-2-4-7 2-1 2 4 19 15 32 19 30 11 21 5 14 1 1 1h19l1 1h193l1-1h74l31-6 25-8 26-12q22-13 40-28-1-3 2-2zm-1 3q-3 2 0 3 3-1 0-3Zm-473 62 1 2h1zm400 6-2 2h2zm-314 12-2 2h3zM88 626q2-1 1 2l2 2-5-2z"/>
  <path fill="#545454" stroke="#545454" d="m484 631 3 1h-3zm-238 1 4 1h-4zm87 0 32 1h-32zm53 0 47 1h-47zm85 0 5 1h-5zm-81 78 3 2q1 2-1 1zm79 1 4 2-4 1v-1zm-184 1 2 1h-2z"/>
  <path fill="#7E7E7E" stroke="#7E7E7E" d="m375 38 2 3zm-94 3 1 2zm160 0-1 2zm10 9v7h-1zm-178 3v17h-1zm63 1v3h-1zm146 1v3h-1zm-258 3 2 1h-2zm74 0 12 1h-12zm29 0 7 1h-7zm160 0 7 1h-7zm-119 1v12h-1zm99 1v6h-1zm-115 1v4h-1zm-94 5v18h-1zm95 3 1 8v-6q8-1 11 2l1 8 1-7v8l-2 4-2-1-7 2-3-2zm-120 1 3 1h-3zm57 0 3 1h-3zm98 0 4 1h-4zm37 0 5 1h-5zm11 0 1 2zm52 0 2 1h-2zm-37 1v8h-1zm-185 1 4 3 1 6 1-7v8l-1 2-1-1-3 3-6 1-1-2 1-12zm116 1v3h-1zm99 0v5h-1zm-297 2-1 2zm282 0v8l-3 4v-2l-2 1-4-2h-2v-5h9l1 1zm-225 2v3h-1zm141 2v4h-1zm54 0v4h-1zm107 0 2 3zm-366 2-6 7zm354 4 1 2zm-345 3-1 2zm154 1 1 2zm196 0 2 3zm-291 1 1 2zm38 0-2 3zm157 0 6 7zm-258 1-3 4zm373 0 1 2zm-213 1 2 3zm34 1-1 2zm99 0-2 3zm-226 1 1 2zm292 0 3 4zm-377 3-5 6zm13 0-1 2zm386 2 1 2zm-388 1-1 2zm182 0 5 1h-5zm100 0 4 1h-4zm90 1 1 2zm22 3 2 3zm-418 4-2 3zm428 6 3 4zm-436 1-1 2zm441 5 3 4zm-447 2-1 2zm436 2 15 18-8-7-5-7-1 3zm-423 1q2-1 1 2-3 5-2 14l-1-8 1-5-5 4-4 5 3-4zm120 0 2 1h-2zm-136 1-1 2zm455 0 1 2zm-224 1v3h-1zm75 0v12h-1zm-56 1v5h-1zm-252 1-2 3zm460 1 2 3zm-430 2v3h-1zm-33 1-1 2zm446 0v6h-1zm-327 1-2 3zm46 0 1 2zm303 2 1 2zm-471 1-1 2zm13 1-2 3zm131 1 2 1h-2zm28 0 1 2zm264 0v3h-1zm-438 1-1 2zm196 1q3-1 4 2v3l-1-4q-4 1-3-1Zm-184 1-1 2zm208 0v10h-1zm15 0v31h-1zm242 0 1 2zm-479 1-1 2zm26 0v20h-1zm112 0-1 2zm123 0v34h-1zm72 0v8h-1zm121 0v16h-1zm13 0 1 2zm-103 1-1 2zm-352 1-1 2-8 13v-1zm176 0v24h-1zm57 0v7h-1zm-110 1-1 2zm175 0 2 3zm159 0 1 2zm-430 1v109h-1zm443 0 1 2zm-485 1-1 2-1 2v-1zm487 2 2 4-2-1zm-368 2v3h-1zm357 0 1 2zm-291 1v4h-1zm137 1v25h-1zm-329 7v2l-1 2-1-1zm12 0v2l-4 8-1-1zm452 0v104h-1zm-173 2v6h-1zm-79 2v3h-1zm-50 1-1 2zm7 0 4 5zm282 1v20h-1zm-89 1 1 2zm141 0 1 4h-1zm-360 1 1 2zm18 3 4 5zm186 0-3 4zm-133 2 1 2zm153 0 1 2zm-180 1-1 2zm-182 2v2l-1 3-1-2zm251 0v8h-1zm114 1 1 2zm-41 4v5h-1zm44 0 1 2zm-183 1 2 3zm93 0 1 2zm60 0v5h-1zm-96 1v6h-1zm-45 1 1 2zm296 1v3h-1zm-496 1v2l-1 3-1-2zm497 3v3h-1zm11 0v3h-1zm-335 1 1 2zm157 0 3 1h-3zm-332 2v4h-1zm500 2v4h-1zm11 0v3h-1zm-512 3v3h-1zm513 2v3h-1zm-11 2v5h-1zm-514 1v6h-1zm11 0v5h-1zm515 2v4h-1zm-11 6v100h-1zm-505 1v22h-1zm-11 2v28h-1zm252 5 3 4zm16 0v14h-1zm19 0-4 5q-3 1-2-2h1l1 1zm47 0 1 2zm16 7-1 2zm43 1 1 2zm-161 1-2 3zm-79 2 1 2zm38 0 1 2h-3zm15 1v15h-1zm110 0-1 2zm-124 2v10h-1zm76 1v15h-1zm317 0v6h-1zm-446 1v20h-1zm159 1v3h-1zm-15 1v4h-1zm44 0v22h-1zm18 0v8h-1zm-83 1v4h-1zm-109 1v6h-1zm60 0v6h-1zm146 0v3h-1zm-419 2q4-1 2 6h-1zm645 1v16h-1zm-323 1v2l-2 1zm-101 1 1 2zm122 2v18h-1zm29 0v18h-1zm-14 1v12h-1zm230 0v182h-1zm-299 2 1 2zm164 5-1 2zm-133 2-1 2zm-197 1v168h-1zm288 0 1 2z"/>
  <path fill="#7E7E7E" stroke="#7E7E7E" d="M40 258v42l1 1-1 2 1 2-1 3v15l1 1-1 1v59l1 6-1 3 1 1v33l-1 2 1 3-1 2 1 3q-2 1-1 6l1 1v71l1 1v12l3 17 5 18q19 48 55 79l14 12-2-2-5-3-2 1v-1h1l-14-12-2-4-2 1 4 8v1l2 2q-2 1 1 3l1 4 8 2-2 1v2q-1 2 2 1h1l2 3 1 2q5-2 3 4v1h4v2h3l5 2q-1-3 2-2l3 3 3 10 4-1q2 5 9 3l-1 4 4 1h2l8 3 2-1q-1 4 2 3l2-3 4 5h3q-1-3 2-2l3 5h3q-1 3 3 2 1-3-1-2l-5-2 4-1q-1-4 4-2l2 4 4 1 3 4q2 1 1-1l2-1 4 5 1-3 2 3h8l1 1 1-1h11l4-2 1-2 1 3h7v2l2-1 5 3 5-3 1 3 2-1 2-3 5 4 1 1 2-3 2 1h1l-1 2 3 1v-3l4 1q1-4 8-3l2 3 6 1 1-2 5 3v-5h3l4 3q0-3 5-2 1 3 6 2l1-3h5q1 3 4 2l1-2 2 4 2-3 3 1q0-3 5-2l5 2 2-1 3 2h2l2-3 3 1 2-1 2 4 3-1 6 2q3-1 2-5 4-1 5 2-1 2 6 1l1 1q-1-3 3-2-1 4 2 3l2-4 5-2 3 2 2-1 2 1q-1 2 2 1l3-1 3 2 4-5 3 1 2 3 2-1 7 3v-2l-2 1 5-3 1 2 3-2 5 1 2 4 3-1 1-2 6 3-1-1q-1-4 2-3h2q2-1 1 2h5l2 1 2-1 4 1 1-4 4 1q-2 4 3 3l-1 2 1 2 2-3q2 1 1-1l3 1 3-1 3 1 1-5q5-1 6 2-1 2 3 1 1 2 6 1h2q2 1 1-1l1-4h10l2-2 3 2 1-2v2q4 2 3-1l-2-4q-3 1-2-1h2l11 8v1l2-1q1-3-1-2v-2q-4 1-3-1h2q3-1 2 2l3 2q-1-4 2-3-1 4 2 3v-4h2l4 2 3-2q-1-3 3-2v-2l1-2h-4q1-3 3-1 4 1 5-2v2l-2 1h3l3-2 3-5v-3l3-3 4 3 8-6 5-2 1 2 1-2-3-5 11 2 3-1q-1-3 2-2l4-2q-1-5 4-6l-1-3 3-2 2 1 1-2v-2q4 1 5-2-1-5 2-4l2-1q-1-5 3-6l2-1v-2l1-6q4-1 3-5-4-2 0-4l2 2-1-5-11 10q18-17 31-38l8-15 8-20 7-31q-2-7 1-8v-28l1-1v-43l1-1-1-4 1-1 1-168 1 7v11q-2 1-1 6l2 8-1 3-1 9 1 3-1 3q4-1 3 2-3-1-2 4l2 4-2 5 1 5 4 5 1 1v2l1 4q-3 1-2-1h-1q1 2-2 1v3q1 3 5 2 1 3-1 2v1l3 1h-2l1 3-2 1q3 1 2 4 3-1 2 2h-2q1-3-1-2h-2q1 4-3 5v3l2 6 4-1v5h4v1l-5 1-1 7q-3-1-2 3l2 6v1l2-1 2 4 1 5-3-1-4 2q1 3-2 5 1 2 6 1h1l-1 5 2 1h-2l1 3q1-2 2 1l-1 2-3-1q1 3-3 2v3l4 1 2-4 6 2h1l-1 2 2 1-6 3 3 1-2 6 1 1-2-1-2 4h-2q-5-1-4 2l3 1 2 3q2-1 1 2l-3 1 3 2-2 3h2l2-1 1-4 1 3-2 3 5 1q1 4-2 5l-1-2-1 2q-3-1-2 3l-3 2 3 1 1-3q3-1 2 2h3v2q-5-2-3 4 4-1 3 2l-2 1 1 2q-4-1-3 2l1 2-2-2h-2l3-2v-2l-2 1-4-2-1 3-3 2v1h6v2l-1 2 4 2 2-1-2 3h-2l2 3h-3l-1 3-5 1 2 7v1h2q-2 4 3 3v1q-3-1-2 2 3-1 2 3l1 2q-2-2-7-1v2l3 3 4 4-3 1 2 1h-2l2 4-7 3 1 4q3-1 2 3-2 1 1 2 2-1 1 2l-3 1v2l2 4h-3l-1 3 1 2 3 2-2 1h2q-1 4 2 3l2-1v3l-2 2 1 1q1 2-1 1h-2q1 2-2 1v3l-1 3 2 2q-3-1-2 2l-3 5q1 2-2 1v2q3-1 2 4l1 1-4 2h3l2-1-3 5q3 1-1 3h-2v5l3 1q-2 1 1 2 2-1 1 2-4 1-5-2l-3 6 1 2-1 1 3 3q2 4-2 3v1l2 1h-2q-2-2-3 1l-1 2q2 1 0 2-3-5-5-1-1 2 2 1 3 2 3 7l-2 6q3-1 2 2l-2-2-1 1-2-1q-5 2-1 4l2 2-2 1h-2l1 2-1-1-5-1 1 3q-3-1-2 2l-1-1q-3-1-2 2 2 1 0 2l-3-1v2l-1 2q-3-1-2 2l7-4 1 2h-4q1 3-1 2v1q2-1 1 3 2 1 0 2l-3-4q-6-2-5 3l-1 2 1 4-1 2 2-1-2 3-2-1-1 5 2 2-5-1 1 3-1 2 2 2q1 2-2 1l-1-3-2 4q3-1 2 2l-2-2-4 2q1 2-1 1l-4 2 1 2v2l-4-1q1-3-2-2v2l-1 2-4-1v2H99l-4-2h3l-5-4 3-2-3-3-3 1-1-3 1-2h-1q-3 1-2-3h-2v2l-2-4q-3 1-2-2l-5-5-1 2q-3 1-2-1l2-3-2 1-1-3 1-2h-1l-2 1q2 1 0 2l-2-1 2-2-2-2q4-2 1-4-5 2-4-2l-4-2v-3q-3 1-2-1l3 1h1l-2-4-3 2-3-1 3-4v-2q3 1 2-2h-3q2-4-1-3l-3 2-3-7q-4 1-5-2l-2-4 1-3h2l-2-1-1-2 2-1-4-1v2l-1-4-3 1-1-4q-3 1-2-2l3 1 1-2q-3 1-2-2 3-1 2 2l2-1-1-6-1-2q-4 1-3-1l1-3v-2l-2 1v-1l-1-4-2 1 4-6-1-1-4 1v-1h3l-3-1 1-2-3-1 5-5-2-2-1-2 2-1-4-2 5-1v-2l-2 1v-2q-4 1-3-1 4-4 3-11l-3-1q-1-4 2-5h1l-2-1q-2 4-4 1l3-1 1-2-1-1-3 1 1-2-2-2-1-9q3-1 2 2l2-1q1-3-3-2l1-2q3 1 2-2-4 2-3-1l3-2-4-1 2-3 1 2v-4l-1-3 2-5-5-4 4-2-2-1-1-5 3-6v-2q1-5-3-3v-3h-2v-1q5 2 3-4 2-2 0-3h-2l3-2q1-4-4-2l1-2q2 1 1-1l-2-6-2 4-1-3-2 1-1-2h2q4 2 3-1 2-3 3 0l-1 2h2q2-1 0-2-4-4-3-11l-4-1 5-2-3-2q-1-3 3-2 1 2 2 0l-2-4h-4l3-1v-2l-1-4h2l-4-2 1-2-2-1q-1-5 3-6l2-1v-3h-4v-3l5 1v-1l-5-1v-5h2l1 3v-3h2l-2-1 2-3-3-1-3 2-1-2 4-1 3-5 2 1 2-3q-3 1-2-3v-4l-2 4 1 3-2 1 1-5-2-1v2l-1-2 6-4q-1-4 2-3-1 3 3 2l-3-3 1-2 1 1q1-4-1-3l-1 1-4-3q-1-5 2-4v3h5l2-5-1-3q-3 1-2 5-3 1-2-2l1-3v-2l2 1v-4l-3 1 3-4 1 1q-1-3 2-2v-1l-2-1-1 2q-4 1-3-2l4-2-1-1q-2 4-4 1l2-1-1-2 3-1 2 3 2-1-3-2v-2l-4 1q-2-4 3-3l2-1q-1-3 4-2v-1l-3-1-3 2 3-4h3l-7-1 5-2v-5q-3 1-2-2 4 1 2-4l1-5-4-1 1-5h2l-1-3h-4v-1l3-2 1 2v-3q4 1 3-2l-6-2 3-2 1 2v-6l-2 1q1 2-1 1l2-5-1-6 2-1q-1 2 2 1-1-4 2-3v-1h-2v-4h-2v-1l-3-4 5-3-2-1-2-4h2l-3-1 2-1-1-3 1-1-1-3h1l-3-1 3-1-1-3h-2l2-1 1 1 4-1-2-4q4-5 4-13Zm-3 18v2l2-1zm0 21v2l2 1q1-4-2-3Zm-1 40-1 3h1zm0 15q-1 3 2 2 1-3-2-2Zm-1 25v1h2zm0 3q-1 3 2 2 1-3-2-2Zm650 10 1 1 1 1q1-3-2-2Zm6 2-1 2 2-1zm-2 25-2 2h3q1-3-1-2Zm-668 7v2l3 1 3-1zm6 4v1h3zm667 16-1 2 2-1zm-674 2-2 2h3q1-3-1-2Zm675 3v1h2zm-672 6v4h1q1-5-1-4Zm2 6v1h4zm663 14v3l4 2 1-2q2-2 0-3l-2 1zm8 10q-2 3 1 2zm0 4q-2 3 1 2zM27 556l-1 2 2-1zm5 29-1 3h1zm3 4 1 2h1zm0 16v3l2-1zm635 18-1 3h4l-1-1q1-3-2-2Zm-582 3-2 2 4 1-1-1q1-3-1-2Zm590 9-1 4-3 1h4l1-2zm-50 70q-1 5 2 6l4-2q2 1 1-1-1-4-7-3Zm-238 5 2 3q2 1 1-1zm79 1v2h4zm-184 1v1h2zm70-454-2 3zm328 1v14h-1zm-245 4v2l-2 1zm-147 1 1 2zm12 0-1 2z"/>
  <path fill="#7E7E7E" stroke="#7E7E7E" d="m33 267 2 2-3 1v-1h1zm114 0v4h-1zm416 0v40h-1zm-416 5v242l3 16q-4 1-2 9l1 2-1 1v10l3 6v3l10 18-3-1-1 9q-6-1-9-6 1-3-2-2v-4h-1l-2 1-2-3 1-3-5-4v1l-15-24-6-19 1-2q-3 1-2-1l-4-12-1-12-1-1v-12l-1-1V299h1v160l1 4-1 1v14l1 1v15l4 13v-3l-1-2 1-3-2-2v-9h1v3l2 3q3 1 2-1l2-2h13l1 2h2l1-2v-28q-1-11 1-16l6-1q1-3-1-2l-2 1v-1h1q-2-2 1-3 3 1 2-1l1-3-1-3 1-3-1-2v-17l1-1-1-2 1-1v-16l1-2-1-3 1-1zm-49 3v16h-1zm478 6v22h-1zm-117 14 6 1h-6zm31 0q6-1 9 2h-1q-2-3-8-1zm-264 1 5 1-7 1v-1zm105 0 13 1h-13zm41 0 9 1h-9zm204 12v27h-1zM29 329v2l-2 1zm534 2v25h-1zm-536 2 2 1h-2zm71 6v154h-1zm152 9 32 1-57 1-1 1 1-2h24zm77 1 117 1H327zm138 0h34l1 2-1-1h-34zm37 2 2 3zm112 4v4h-1zm-37 1v8h-1zm2 5v3h-1zm-553 2v3l-2 2 1-3h-2zm556 1v3l-1 1v14l-1 1q3 1-1 3l-2 5v8l-1 1-1 14-2 9-9 14-2 8q-3-1-2 2l1 3-7 5q1 3-1 4l-6 3 2 1-3 2v2q-3-1-2 2l-8 9-9 8-2 3-1 2-7 6-13 17-2 5-2 1 3 1h9l1 1h13l10 3q1-2 2 1l1 29v2l1 2h9q1 3 8 1 1-4 8-2v-5q-3-1-2-6l1-3h-2l1-5-1-2 2-5-8-1q-4 3-10 2l1-3h18v-5l-1-3q-2 2-8 1l-1-1h-8l-1 1h-8l1-2q-1-3 2-2-1 3 4 2l1-1h14l3 1 2-1q3 4 10 3-1-3 3-2l3-1 3 1v-2l5 1q2-1 0-2l1-2 2 3q3-1 2 2h4l2 1-1 3q3 1 2-1l2-3 3-15-1-1 2-4 2-11 2-4-1-2 2-5 1-41v51l-5 28-11 29-10 18-21 23-8 7-25 15-5-1-7 3h-4l-2 2-25 2-3-1-16 3q1 3-1 2l-1-1h-17l-2-2-7-1-2 1v-1h1l-5-1 1-3h-1q1 3-6 1l-3-1q1-4-2-3 1 4-4 2 2-4-2-3l-3-5q2-2 0-3h-2l4-1 4-6 3-2v-2l1-4 4-1-1-3 2-1q-1-3 2-2v-2l2-4v-2l-1-5 4-1-6-4 5-4 1 1 3-3q-2-2 1-3h2v-2h2v-2l2 1-1-2q3-2 2-5l3-1 2-4h2q-2-2 1-3l22-23v-2q3 1 2-1l4-3v-1l23-25 3-2 50-56 10-21 3-17 1-14 1 2 1-2 1 1zm-88 158q-3 3-10 2v30l2 5 2-1 2 1q4 0 4-2l-1-2 1-19 1 7 1-6-1-2 3-7q3-8-4-6Zm7 1v14l-1 2v12l1 1-1 3 1 2-1 2h25l2-1q7-4 10-14v3h1v-12l-1 4-2-2-1 8h-1q-2-7 1-8l-2-1-1-4-4-4q3-2-1-4l-2 1-3-2zm-60 34 1 2q1-3-1-2Zm119 2v1h2zm-60 2-5 3 1 3 2-1 2 1q3 1 2-2h4v-2zm-63 5v2h4zm-8 20v2l2-1zm133-219v3h-1zm-537 2q3-1 2 2v2h-2zm0 9 2 2h-1zm668 18 2 1h-2zm-79 1v34h-1zm-70 2-1 2zm-318 3h131v2l-104-1-2 1-1-1h-19l-8 2 1-2zm137 0 86 2h-87zm98 8 40 1h-40z"/>
  <path fill="#7E7E7E" stroke="#7E7E7E" d="M139 411h4v8l-4 6-1-1v-4zm408 5-2 3zm-5 4-2 3zm-60 3 3 1h-3zm-21 1 4 1h-4zm-35 1-3 4zm112 0-2 3zm-4 5-9 10zm-96 1-1 2zm-5 4-2 3zm265 1 1 2zm-682 6q3-1 2 2-3 1-2-2Zm689 6 2 1h-2zm-195 7-6 7zm-281 1 25 1h-25zm-212 1q3-1 2 2-3 1-2-2Zm208 0 1 1-2 1zm88 0 67 1h-67zm94 0v2l-1 4-1-3-2 1-6-2h-13l14-1 1 1h7zm290 1 3 2h-3l1 3-2-1v-2l-3 2q-1-3 2-2zm-278 4v3h-1zm-14 6v8h-1zm13 2v6h-1zm-400 5 1 1-2 1zm472 1-4 5zm-476 2 3 1 2-1-1 3 1 3q-3 1-2-1zm611 3v13h-1zm-149 10-9 10zm-455 8 1 2q-3 1-1-2Zm78 0v3h-1zm525 0v4h-1zm-220 2v33h-1zm295 0 3 1h-3zm-235 3-5 6zm-364 1v3h-1zm523 0v3h-1zm-461 2v4h-1zm426 5 2 1h-2zm-137 6-8 9zm104 0 2 1h-2zm-391 2v3h-1zm330 6v8h-1zm-77 6v5h-1zm92 0 1 3 4-1 5 1 5 4q1 8-4 11l-11 1zm13 1 1 2zm-88 3-6 7zm113 0 13 1h-13zm-525 1q3-1 2 2-3 1-2-2Zm381 5v4h-1zm145 1 9 1h-10v4l-1-3zm-375 3 1 2zm251 0-2 3zm-22 1v3h-1zm294 0v4h-1zm-143 1 3 1h-3zm-5 2 13 1h-13zm-372 1 1 2zm355 0-3 4zm-113 2-5 6-1-2q3 1 6-4Zm-237 4 7 8zm252 3q2 1 1 5l-2 1 1 1-3 1-2-3 2-3 1 2zm-37 2-1 2zm297 2q2-1 1 2zm-95 2-1 2zm93 2 2 1h-2zm-300 1-4 5zm305 0 4 3-4 3-2-4q3 1 2-2Zm-568 3 1 2zm466 0-2 3zm-175 1-1 2zm-35 2-1 2zm-358 1 3 3h-2q1-3-1-2zm105 0 1 2zm284 0-1 2zm174 2-2 3zm-177 1-1 2q1 2-2 1v2h-1l-4 2 2-3zm-278 1 4 5zm198 3 5 1h-5zm18 1 11 1h-11zm-200 12 2 3zm263 4 2 1-2 1zm-257 1 1 2zm20 0 8 3-3 1q-5-1-5-4Zm10 3 2 1q1-2 2 1-1 3 4 1l-1 2v1q-3-4-9-3zm374 0-1 2zm-399 1 1 2zm368 4 2 1-3 1zm-5 2 2 1-4 1v-1zm-308 5 19 3h28l4 1 4-1-1 2h-20l-4-1-5 1-1-1h-9l-1-1q-9 1-14-1zm147 0h15q3 5 12 3v2h-54q3-3 10-2 1 3 8 1zm140 1 5 1-3 1-17 2 1-2 3 1 4-2q5 2 7-1Zm-180 2 2 1h-2zm8 0q3-1 2 2zm129 0 5 1h-5zm13 2 3 1h-3zm208 9q2-1 1 2zm-438 2 2 1h-2zm234 0 2 1h-2zm145 3-3 4zm-5 4-3 4zm-6 5-2 3zm-4 3-1 2zm-3 2-1 2zm-3 2-1 2zm-3 2-1 2zm-477 1 1 2zm3 2 1 2zm469 0-1 2zm-466 2 3 3-1-1zm461 1-1 2zm-456 2 1 2zm453 0-1 2zm-446 4 1 2zm434 2 1 1-3 1v-1zm96 6 1 2zm-11 7 2 2-2 1zm-468 4 2 1h-2zm326 1 2 1h-2zm-317 1 2 1h-2zm313 0 2 1h-2zm-306 1 3 1h-3zm299 0 5 1h-5zm-343 1 3 3-1-1zm52 0 4 1h-4zm270 0 18 1h-18zm-250 1 193 1H234zm418 5 1 1-2 1zm-7 11 3 4-3-1zm-397 1 1 2h-3z"/>
  <path fill="#A8A8A8" stroke="#A8A8A8" d="M0 0h720v720H620l-1-2 4 1 1-2v-2l3-1-1 2 2 2h2v-2l-1-2 5-2 1-2-1-1-4 2q-3-1-2-6 6-1 7 3-1 3 3 1-1-5 4-6l-4-2 3-1 5 1-2-2v-4l4-4v-3l-1-2 1-4q5 1 6-1l-2-1q-1-3 2-2l1-2v-2l3 1q2-1 0-2-1-3 2-2l1 1q-1-3 2-2l-1-3 5 1 1-2h3l-4-3q2-5 4-2l2-1 1-6h-2l2-1 1 1q0-5-3-7-3 1-2-1l2-2q2 5 4 2v-2l2-3-4-1 3-1 1-4 1 3-1 2q5 2 3-3l-3-3 1-1-1-2 3-6q1 3 5 2 1-3-1-2l-1-3h-3v-5l4-2-1-1 3-3q1-3-1-2l-4 2 2-3h2l-1-5q-3 1-2-2 3 1 2-1l3-5q-1-3 2-2l-2-2 1-6q3 1 2-1h2q2 1 1-1l-1-1 2-2v-3l-4 1q2-4-1-3v-1h1l-3-2-1-2 1-2v-2l3 1-1-1-1-3 1-3q3 1 2-2l-3-1 1-4q-3 1-2-2l-1-2 7-3-2-4h2l-2-1 3-1-7-6-1-2 6-1 2 1-1-5q-3 1-2-2h2l-3-1q2-4-2-3v-1l-2-7 5-1 2-4 2 1-2-2 1-2q1 3 3-1l-1-1-2 1-3-3 1-3h-5l-1-1 4-3v-2l5 2h1q-1 3 3 1l-1-2 2-1q1-3-3-2v-4q4 1 3-2l-3 1v-1q1-3-2-2l-1 3 2 2-3-2-1-2 2-1v-3q3 1 2-1h1l1 1q3-1 2-5l-5-1 2-4-2-1q2 4-1 3l-2 1 1-2-1-3h-2l3-1q1-3-1-2l-2-3-3-1q-1-3 4-2l3-1q-2-2 1-3 2 1 1-2l2-4-3-1 6-3-2-1q1-3-1-2-2-3-5-2l-2 4-4-1v-3h3q-1-3 2-2l1 1 1-2-3-1q-1-4 2-3v-1q-3 1-2-2l1-3h-1q-5 1-6-1 3-2 2-5h2l-3-1 3-2 1 2 2-1 2 1-1-5-2-4-2 1v-1l-2-9q3 1 2-3l1-4h-2l1-3 2 1v-5h-1l-3 1-2-9 4-6 2 1q1-3-2-4l2-1-1-3h2l-4-1 2-1q1-3-2-2-4-1-3-5 3 1 2-1h1q-1 2 2 1l-2-5 1-2-3-1-2-4-1-7 2-3-2-8q3 1 2-2-4 2-3-2l1-3-1-4 2-7-1-3-1-12 1-1v-11l-1-7-1 168-1 4v43l-1 1v30l-1 1-1 13-4 14v5l-10 26-4 7v-1l13-33 5-26 3-97-1-2 1-1V201l-1-1v-8l-1-1v-7l-2-10-4-16-8-21-19-33q-12-17-27-31-17-15-37-26l-20-9-15-5h-4l-4-2-15-3-21-2-1-1-59-1-1 1H275l-1-1h-23l-1 1h-43l-44 10-13 5-23 12-25 18-2 4-8 7-2 3q-27 28-41 70l-5 20v6l-2 8v14l-1 1v45l1 1v18l-1 1v31l1 1v9l-1 1v13l-1-15 1-3-1-3v-44l-4 15 2 2q-4-1-5 2l1 2-3 1 3 1-2 1q4 1 1 3l1 3-2 1 3 1h-2v2h2q-1 3 2 2l-1 2-4 2 3 4v1h2v4h2v1q-3-1-2 3h-2v-2l-2 3 1 5q-2 1 1 3 2 5-1 7l3 1q1 3-3 2v3h-1q1-3-1-2l-2 3h4v2l2 4h-1q1-4-2-3l-1 5 4 1-1 9q-3-1-2 2 4-1 2 5l-5 2h7l1 2-1-1q-5-1-6 3l1 1q1-3 3-1l2 1h-4q1 3-1 2l-4 1q-2 4 3 3h1q-1 2 2 1l1 2-7 4q-1 3 3 2l1-2 2 2h-2v2l-1-1-4 4h4v3q-3-1-2 3l-1 3q3 1 2-3l2-1 1 3-2 4h-5q1-4-2-3-1 6 4 7l2-1v3h-2l3 4h-3q1-3-2-2 2 4-1 3l-5 4 1 2v-2l4-2 1 3-1 4 3-1-4 5v-2l-3 2-2 4h2q-1-3 4-2l2 2-6 4 2 1h-2v3l-1-3h-2v5l5 2h-5q-1 4 4 2v3l-5 4q-1 4 2 3l-1 2q-1 2 2 1l4 2v4l-2-4q-3-1-2 2l1 2v2l-3 1 5 2 1 2q-1 2-2 0-4-1-3 2l3 2-5 2 4 1q-1 8 4 12l-2 1v-1l-1-3-2 3 3 7-3 2h5q1 3-1 2l-1 2 2 2-1 5-4 1h3v3q4-2 3 3v2l-3 6v3l1 2 2 1-4 2 5 4-2 7 1 5h-1v-2l-2 3 4 1-3 2q-1 3 3 1v2l-4 2h5l-2 3h2l2-3-1 2-2 3h-2v-2q1-3-2-2l1 9 2 2-1 2 4-1-1 2q-1 2 3 1v1l-3 2q-1 3 2 4 2-1 1 6l-3 6q4 2 3-2h1l-2 4h2q1-3 3-1l2 2h-1l-3-1q1 3-4 1l1 2 2 1-2 1 3 4-5 5 2 1 1 1v1l4 1-1-2 2-1 1 2-5 5-1 3h2l1 3v1l2-1v2l-1 3q-1 2 3 1l1 2 1 6-3 3-1-1q-3-1-2 2l3 2q-1 3 2 2h1l1 3v-2l4 1-2 1 1 2 2 1h-2l-1 4 5 5q3-1 2 2l4 5 3-2v3q4-1 3 2l-3 1 1 2-2 3 2 1 4-3-1 2 2 3h-2q-2 4 3 3l1 4q4-1 5 2-4 2 1 4l4-2v1q-3-1-2 2l-1 4 2-1 1 1-2 3q3 1 2-1l3 1 3 2 2-1v1q-3-1-2 3 3-1 2 3l2 1q-1-3 2-2-1 4 2 3h1l-1 3 1 2 3-1 4 4 1 2-2-1q1-3-1-2l-1 2 4 4-2 1 1 1H0zm683 234-1 6h1zm-645 7 1 6h1q2-7-2-6Zm645 1-1 16h1zm0 17-1 14h1zM33 274l-2 2h2zm0 46-2 2h2zm0 4-2 2h3q1-3-1-2Zm-4 5-2 3 2-1zm-2 4v1h2zm-2 36v4h2v-2q1-3-2-2Zm4 4v3l-2 1q2 3 4-1 2 1 1-1zm663 1q-1 3 2 2 1-3-2-2Zm-667 4 1 2h1zm668 14-1 2 4-1zm0 4v1h2zM23 414l-1 5 2-1zm-7 12 1 2 2-1zm0 16q-1 3 2 2 1-3-2-2Zm689 6v1h2zm-688 9q-1 3 2 2 1-3-2-2Zm680 1-2 2 2 2v-2h3zm-4 2v2l2-1zM14 478l3 5q-1 2 2 1l-1-3 1-3-2 1zm2 7v2l2-1 1 3 1-2v-2zm680 10-2 2h2l2 2-1-2q1-3-1-2Zm-675 4q-2 3 1 2zm678 2v1h3zM22 537q-1 3 2 2 1-3-2-2Zm674 10-1 4h1zm-3 17 1 2q1-3-1-2Zm-2 4v1h2zm-665 1q0 4 2 1zm670 0q1 3-2 2l2 4 4-3zm-668 8q-2 3 1 2zm2 31v1h3zm651 22 1 2q1-3-1-2Zm-645 1q-1 3 2 2 1-3-2-2Zm643 10v1h2zm-5 19 1 2q1-3-1-2ZM70 687q-3 2 0 3 3-1 0-3Zm577 6-1 2 2-1zm5 1-1 2 2-1zm-11 11v3q3 1 2-1zm5 1q-2 3 1 2zm-7 3 1 2q1-3-1-2Z"/>
  <path fill="#A8A8A8" stroke="#A8A8A8" d="m358 31 3 1h-3zm15 5 1 2zm-124 1-4 5zm96 0-1 2zm129 1 1 2zm-132 2-2 3zm135 1 1 2zm-14 4 2 3zm-108 1-1 2zm-86 1 2 3zm96 0 1 2zm-107 3 1 13 3-6 6 1q1-2 2 1l1 2h1v13l-1 7-1-6-4-3-5 1-1 12 1 1-3-1zm95 1 1 6v-2l6-1 6 3 1 2 1-6v6l-1 1v14l-1 7-1-8q-3-3-11-2v6l-2-8zm113 0v24l-1 5-1-1h-9v5h2l4 2 1-1 2-1-2 3-5 1-5-3-1-2V72l-1-1V58h1l1 7v-6l2-2q7-1 10 1l1 5zm-31 3v3l-2 1zm-147 3 1 1 8 1h-8zm207 1 3 1h-3zM287 70l2 1h-2zm98 0 2 1h-2zm100 0 2 1h-2zm-244 1 1 2zm0 3v3h-1zm46 1v8h-1zm49 0v6l-2 1 2 9-1 3 1 2q-3 1-2-3l-2-10 1-4h2zm99 0v6h-2l-1 7-1-6zm-50 2 1 6-2-1zm156 0 1 2zm-361 1-2 3zm57 0q3-1 2 2l-1 2 1 3 1 7v2q-4-6-3-16Zm4 2v3h-1zm96 2 2 7-2-1zm-67 1v2q-1 3-7 2v-1q6 1 7-3Zm95 0v2q-1 4-8 2l-2-3q1 3 7 2l2-1zm71 0 3 7-2-1zm-246 2-2 3zm52 0q2 7 8 11l4 3-4 2-1-3h2l-5-3-5-8zm-72 3-3 4zm384 1 2 3zm-214 1 3 5-3-2zm39 0-2 3zm98 1-1 2zm1 0 5 1-2 1h2l-2 6-3 1 1 1q-7-1-8 3 1-2-2-3l3-3 2-1q-2-2 1-3l3 1zm-37 1 4 5zm98 0 1 2zm-258 1-2 3zm276 0 2 3zm-396 2 1 1-3 2zm18 0-1 2zm166 0 1 2zm29 0-2 3zm-218 2q2-1 1 2l1 1-2 1-2-2zm291 0 1 2h-5zm23 0-1 2h-2zm-214 2 3 2-4 1v-1h2zm107 1 2 1h-2zm17 0-1 2zm74 0 2 1h-2zm112 1 2 3zm-409 2-2 3zm-4 3-1 2zm419 0 2 3zm-206 1-1 2h-4zm-217 2-5 6-3 2-5 6 4-5 1-2-3-2q1-3 3-1l3 1zm427 1 5 6zm7 8 2 3zm-451 2 2 2-1-1zm460 3 3 4q-3 1-2-1zm-463 1v2l-1 2 1 1q-5 2-3 5-4 1-3-1zm6 0-3 4-4 6v-1zm453 0 2 3zm-132 2v10h-1zm-308 2q3-1 1 4l-1 1v10l-1 1v31l-1 2 1 1v89l-1 4v115l-1 3 1 2-1 1v16l-1 2v17l1 1-1 2 1 3-1 3 1 3-1 2-4 2 3 1q1 3-2 2l-4 1q-2 5-1 16l-1 1 1 1v26l-1 2h-3v-2h-13l-2 3q-3 1-2-1-3-2-2-6l-1 10 2 4-1 2 1 4h-1l-3-13-1-30 1-4-1-1V299l-1-1v-63l1-1v-25q3-2 1-7l8-28 10-20zm-14 38-1 2 1 1-2-1-1 3-6 5q2 5-4 3l-2 5 1 4-2 4 2 8v3h-5l-1 2q-1 2-2 0l-2 7v27l1 1v15h5q4 1 2-3h3l1-3 4 2-4 2q-1 5 4 6v-4l7-3-1-3q3-2 1-3l1-3v-23l-1-1 1-2-1-5v-4l1-6h-2l2-1v-7l1-1-1-3q-1-5 2-4l-1-2 1-2-1-3 2-6q1-5-2-4zm-20 93-2 4h2zm25 152-1 9v4l1 1 4-6v-8zm436-283q17 16 27 39l7 19 4 22v230l-1 1v40l-2 6 1 3-2 2-1 9-2 3v4l-3 15-2 4q-3 1-2-2-1-3-5-2 1-3-2-2-2-2-3 1l-5-1v2l-5-1-4 1q1 4-5 2l-6-3-3 1-1-1h-14l-5 1q1-3-2-2l-2 4 1 2h-2l-10-3h-13l-1-1h-9l-3-1 2-1 2-5 8-9v-2l11-12q2 1 1-1l1-3q3 1 2-1l12-11 5-8q3 1 2-2l3-2-2-1 7-4q-1-4 2-5l5-3-1-5q3 1 2-2l3-8 8-12 2-9v-8l2-7v-8l4-7v-2q-2-11 1-17h-1l-2 3h-2v1l-1-4q3-2 1-8l-1-1V144l-1-1zm12 29q-3 1-2 5l2 1-2 1 2 1h-3l1 42 1 1-1 5 2 11v7h3v4h3v7h5v-3q7-1 10 2l1 2h-3v2q-3-1-2 2v2h3l3-2-2 5 2-1q3-1 1 5h1v-45l-2-3 1-3-2-15-3-9-6-10v-3l-6-8-2 3q2 1 0 2l-3-4 1-2q1-3-3-2Zm13 86q-2 5 2 4 2-5-2-4Zm10 18v2l2 1q1-4-2-3Zm-31 100-1 3h1zm9 151v1h2zm-33 6v1h2zm36-390 9 12-2-1zm-341 4-1 2zm42 0 1 2zm309 1 3 5-4-3zm-218 1-1 2zm-256 1-2 3zm35 0v4h-1zm399 0v3h-1zm-265 1 1 2zm-51 1-1 2zm128 1 2 1h-2zm-249 1-1 2zm316 0v11h-1zm161 2 1 2zm-479 1-1 2zm258 0 2 1h-2zm182 0v5h-1zm-282 1 3 4zm323 1 2 4-2-1zm-135 1-2 3zm141 1 5 11-2-1zm-490 1-1 2zm277 1-2 3zm87 0-1 2zm123 1 3 2 7 19h-1zm-142 1-7 8zm-9 1v8h-1zm-88 1v10h-1zm-257 2q2 1 0 3l-2 5-1-2zm178 2v9h-1zm-51 1v3h-1zm106 3v12h-1zm45 3v7h-1zm-278 1v2l-1 2-1-1zm200 5v6h-1zm166 1 1 2zm-219 1 3 4zm-150 1v2l-1 2-1-1zm320 0 1 2zm-3 1-1 2zm-96 3 1 2zm104 0 1 2zm-327 1v2l-2 6-1-2zm278 0v13h-1zm8 1 1 2zm22 0 3 1h-3zm42 0v5h-1zm-182 1 2 1h-2zm120 2 1 2zm-147 1 2 3zm220 0 1 2zm155 1v3h-1zm-278 2 1 1-2 1zm25 0v5h-1zm-266 1v3h-1zm339 1v3h-1zm181 0v3h-1zm-277 2v3h-1zm-244 1v3h-1zm522 1v4h-1zm-297 1 3 1h-3zm-226 2v3h-1zm524 3v3h-1zm-525 1v5l-1 1v10l-1-10zm526 4v3h-1zm-389 2v20h-1zm69 2v3h-1zm321 3v38h-1zm-259 6 10 1h-11v3l-1-2zm100 0 4 1h-4zm-86 1v4h-1zm23 3 3 4zm-307 1v57h-1zm313 0-1 2zm-90 1-4 5zm166 0 4 5zm-35 1-2 3zm-97 1 1 2zm-12 6 1 2zm44 1-2 3zm-135 1v8h-1zm142 0 1 2zm-33 4v3h-1zm-49 1v3h-1zm100 1v3h-1zm28 0v14h-1zm57 1v3h-1zm-100 1v8h-1zm84 0v4h-1zm-99 2v5h-1zm-91 2v20h-1zm37 2-1 2zm8 0 3 1h-3zm21 0 2 1h-2z"/>
  <path fill="#A8A8A8" stroke="#A8A8A8" d="M120 246v3h-1zm140 0 1 2zm218 1-1 2zm-18 1 1 2zm-198 1 1 2zm104 0v11h-1zm-19 1-1 2zm-95 2v5h-1zm13 1 1 2zm40 1v6h-1zm-68 1v4h-1zm159 4v3h-1zm29 0v4h-1zm-186 4 1 2zm12 0-1 2zm159 1-1 2zm18 2 2 1h-2zM37 276l2 1-2 1zm60 15v50h-1zm131 4h224l2 1 4-1q1 3 7 1l1-1h23q1 3 8 1h1v1l2-1 1 2 1-1 4 5 1 7q-2 7-7 10l-3 1h-30v-1h3l-2-4h-2v-4q4 1 2-4h4l3 1q-1-3 4-2 2 3 9 2 2-1 1-5h-15l-1-4h-11l-5-1-1 1h-15l-2 1-1-1h-19l-2-1-1 1h-20l-1-1h-62q-2 3-8 1-2-2-7-1l-1 1h-14l-1-1h-14l-1 1-21 1-1-1h-10l-1 1h-18l-1-1h-9l-5 2q1 3-2 2v3l1 3q3-1 2 3l2 5 3 2h-2l-7-5-2-7q2-7 7-10l2 1v-2q1 2 6 1v-1q-4 1-3-1Zm103 1v1h13zm41 0v1h9zm118 6v1h2zm-22 10q-1 3 3 2 1-3-3-2ZM37 297q3-1 2 3l-2-1z"/>
  <path fill="#A8A8A8" stroke="#A8A8A8" d="m250 315 7 1-7 1zm20 0q6-1 9 2h-9zm-40 4 57 1h-57zm64 0 8 1h-8zm11 0 7 1h-7zm96 0 7 1h-7zm-360 5v38l1 4-1 3 1 3-1 1v9l1 2-1 2 1 1v123l1 1 1 23 6 25h-1l-5-19v-5l-2-7v-12l-1-1v-71q-2-2-1-6l1-3-1-2 1-3-1-2 1-1v-33l-1-3 1-2-1-5v-2zm56 18v13h-1zm130 6 22 1h-22z"/>
  <path fill="#A8A8A8" stroke="#A8A8A8" d="m283 348 211 1-30 1h35l1 1h1l1 1q1-3 3 2 3 2 2 9l-6 8-6 2h-38l-3-1-3 1-1-1H228l-6-2-3-2q-4-4-2-12l5-6 2-1 1 1h25l1-1h31zm44 1v1h117zm-56 3-1 1h-15l-1 1q-7 2-8-1l-13 1h3v1h-2v4q-5 2-4-2-3-1-2 2h-5q1 3-2 2l2 6h1q-1-5 2-4l1-2 1 3q-1 2 2 1v2h2l1-2q-1-3 2-2v-2q4-1 3 2h4v4h20l5-2q5 1 4-2h18v-8h-7l-1 2h-6l-1-1v-2zm27 1v2h-5v8l-3 1 9 3 3-2h7v-2l3-1 2 2-2 1q9-1 15 2 3 1 2-2l6 1h26l1-1 15 2 2-4 4 2 4-1 4 1q6 1 9-2 3-1 2 2 3 1 2-2l6 3 4-2 2 1 2-1h20l3 2 5-2q9 1 14-1l1-2q2-6-4-4h-2q-3-1-2 2-6 2-4-4-4-1-3 2h-5v2l-3-2q-3-1-2 2-3 1-2-3v-3h-5q0 3-4 2 1 5-2 5v3h-1v-2h-4l-1-2v-4h-24l1 5-1 3h-4q2-6-3-4l-1-4q-3 1-4-2l-3 1-3-1h-46l-1 2h-6l-1-2zm165 8q-1 3 2 2 1-3-2-2Zm-427-9q3-1 2 2-3 1-2-2Z"/>
  <path fill="#A8A8A8" stroke="#A8A8A8" d="M242 355h12v2h-11zm168 5-1 2h-2zm-80 1q4-1 3 2-4 1-3-2Zm232 2v4h-1zM35 377l2 1h-2zm0 3q3-1 2 2-3 1-2-2Zm650 10q3-1 2 2l1 1zm-133 1-7 8zm-158 11 52 1h-52zm-171 1q1 3 7 1l1-1h19l2 1 1-1h34l1 1h69l4-1 1 1h87l1-1h12v1h-10l-13 3h-17v4h-12l-4 2q-1 4 4 2v4l4 4-2 3 9-1 1 2-41-1-1 1h-33l-1-1H225l-5-3q-4-5-3-14zm168 14v1h2zm67-7 2 1h-2z"/>
  <path fill="#A8A8A8" stroke="#A8A8A8" d="m435 415 2 1h-2zm5 0-1 2zm-13 3 1 1-2 1zm8 0-1 2zm-3 2-1 2zm-14 1q4-1 6 2h-3l-2-1-3 1v-1zm11 1-2 3zm110 1-2 3zm-73 1 4 1h-4zm-439 4 3 1h-3zm508 0-2 3zm-113 1-2 3zm204 0v53h-1zm-186 1-1 2zm-4 3-1 2zm-18 1-1 2zm111 0-1 2zm-113 3-1 2zm108 3-17 18zm168 4h2l1 1-2 1zm-672 2q2-1 1 2h-3zm675 3 2 1h-2zm-465 6 5 1h-5zm-4 1 3 1h25l1-1h115v1l-58 1h68l1-1h11v1l-8 1q12-1 20 2h1l-1 40-1-19-11-1-3 1-1-1H229q-8-1-11-6l-2-8 8-10 2 1z"/>
  <path fill="#A8A8A8" stroke="#A8A8A8" d="m399 458 4 1h-4zm-374 3 4 1h-4zm476 3-1 2zm-3 3-9 10zm190 8 3 1 2-1q2 1 0 3l-1 2-4-2zm-270 1v49h-1zm59 2v2l-4 5-3 2q-1 6-6 8h-4l5-4q2-7 8-10zm8 3-15 16zm211 8 1 2q-3 1-1-2Zm-598 4v6h-1zm527 1v6h-1zm-159 7-6 7zm-367 1v3h-1zm63 1v4h-1zm241 2v37l-3 2 2 3-2 7q-2-2-3 1l-2 1 1 2-3-2q-1-4 2-3v-3l1-2-1-5q3-2 2-6l-1-3 3-6-1-7q3 1 2-1l1-2q-3 1-2-2 3-1 2 2h1zm55 5-8 9zm-295 1v4h-1zm68 3h106l1 1 17 1h-36l-4 1-2-1-7 2h-24l-4 1-5-1-2 1-4-1-1 1h-23q-2-2-7-1h-2q-7 2-9-1zm-67 3v3h-1zm273 3q2-1 1 2l-2 1-1-1zm-272 1 9 21h-2v2l-2-2h2v-2q-4 2-3-1-5-8-4-18Zm399 2 1 3h-1zm-79 1v3h-1zm40 1 1 2zm14 1v8h-1zm-97 1-8 9zm87 2 2 3zm-20 1-1 2z"/>
  <path fill="#A8A8A8" stroke="#A8A8A8" d="m56 533 6 18v4l11 25q10 18 24 33l3 3 12 12 18 15 30 16 30 10 28 5h246l1-1h35l6-2h6l5-2 15-2 20-6 18-8 21-12 20-15 15-15q13-15 23-32l6-16 3-1 1-4 4 1h1q2 9-2 13 3 1-1 3l-3 4q1 5-1 6-3-1-2 2l-7 13-10 13-3 2-11 13-3 2q1 2-1 1l-9 8-5 2q1 3-1 2l-17 12-24 12-16 5-5 3-26 5-4 2-16 1-6 2-4-1-1 1-91 1-1-1-26-1-1 1h-19l-1 1-11 1 23 2h-51l-4-1 5-1 1 1h18v-1l-31-1q1-3-3-2h-2l-17 1 2 1h-5q-2-2-6-1l-1 1h-34q-2-3-8-1l-4-2-21-2-3-2q-11 0-17-4h-5l-21-8-16-8-18-12-23-21q-25-25-39-61l1-2-2-3 1-5-4-3q-1-6 3-4v-4l-1-5 1-2-1-2zm4 139q-2 3 1 2zm598 4-1 2h3zm-2 2-2 2h2zm-1 3-2 2 3 3q2-1 0-2 1-4-1-3Zm3 0v2l2-1zm-327 5v1h3zm86-149v4h-1z"/>
  <path fill="#A8A8A8" stroke="#A8A8A8" d="M485 537v17h-1zm40 0v7h-1zm37 0 1 2zm-53 2v8h-1zm-8 1v11h-1zm-74 3-2 3zm131 0 4 1h-4zm106 0v2l-2 1zm-491 2 1 2zm250 1-1 2zm-246 1 7 7 9 9q13 9 30 14l19 2 1 1 13 1-1 1-25 1-12-2 2-1-2-1-3 1v-1h1l-3-2q1-3-1-2l-8-2 1 3-14-9-14-13h2zm13 17 1 2h1zm333-17-2 3zm9 1v2l-2 1zm-111 1-3 4zm-245 1 1 2zm341 0 2 1h-2zm48 2v6h-1zm-72 2v4l-3 1v-1h2zm-94 1v2l-2 3v-1zm87 1 1 2zm-435 4 1 5h-1zm69 1 1 2zm276 0-1 2zm104 0 6 2v2h-4q1 3-2 2l-2-1-2 1-1-3zm101 1-1 2zm-479 2 1 2zm272 0-1 2zm-341 2 1 4h-1zm71 1 1 2zm268 0-2 3zm-266 3 1 2zm-71 1 2 6h-1zm332 1-2 3zm-258 2 1 2zm254 1-1 2zm208 1-1 2zm-211 1-1 2-14 5h-27v-2q-8 2-7-2l7 1h2l7-1 5 1 5-1h4l3 1 1-1h9zm-248 1 1 2zm158 2 4 1 2-1 1 1h27l3-1 2 2-33 1-9-1zm-12 1 4 1h-4zm308 1-12 13zm-523 6 2 4-2-1zm596 0-1 2q-6 12-14 21l2-3zm-517 1 4 5zm-76 4 1 2zm504 4-1 2zm-501 1 2 4-2-1zm84 1 1 2zm413 1-1 2zm-494 3 1 2zm2 3 1 2zm2 3 7 9-5-4zm567 3-3 4-6 7 5-6zm-559 7 5 6zm586 4q3-1 2 2l1 1h-4zm-37 1-10 11zm-542 3 6 7zm149 5 2 1h-2zm240 0 2 1h-2zm-24 1 9 1h-9zm164 3-2 3zm-518 2 3 4zm513 2-3 4zm-507 3 4 5zm502 1-2 3zm-496 4 2 3zm489 1-1 2zm-485 2 5 5-2-2zm482 0-1 2zm-3 2-1 2zm-472 3 6 5-2-2q-4 0-4-3Zm467 0-1 2zm-5 3-1 2zm-454 2 3 3-1-1zm451 0-1 2zm-444 4 10 6h-1l-8-4zm436 0 1 1-3 1v-1zm-11 5 1 1-5 2v-1zm-409 3 3 2h-1zm20 7 2 1h-2zm4 1 2 1h-2zm4 1 2 1h-2zm345 0 2 1h-2zm-341 1 3 1h-3zm336 0 2 1h-2zm-331 1 2 1h-2zm326 0 2 1h-2zm-322 1h7l15 3 60 1h-60l-1-1-21-2zm311 0 7 1-11 2h-20l-1 1h-82v-1h75l1-1h25zm-117 3 2 1h-2z"/>
  <path fill="#D2D2D2" stroke="#D2D2D2" d="m251 24 23 1h-23zm192 0 10 1h-10zm20 0 6 1h-6zm-256 1 10 1h-10zm74 0 154 1H281zm192 0 29 1h-29zm-272 1 2 1h-2zm307 0 3 1h-3zm-313 1 2 1h-2zm321 0 2 1h-2zm5 1 3 1h-3zm-335 1 2 1h-2zm341 0 2 1h-2zm-345 1 2 1h-2zm350 0 2 1h-2zm5 1 2 1h-2zm-363 1 2 1h-2zm378 3 4 2h-1l-3-1zm-80 1 1 2zm-315 1 1 1-3 1v-1zm121 0 4 5zm166 0-1 2zm-68 1 1 2zm185 0 3 2h-1zm-411 2 1 1-5 2v-1zm291 0-2 3zm-62 2 1 2zm-136 2-1 2v1l-1-1zm-103 1-1 2-2 1 1-2zm437 0 6 4-1-1-5-2zm-123 1-1 2zm-2 3v3h10l3 3v8l-1-5q-3-2-10-1l-2 2v6zm-85 1v9l-2-4-8-1-3 1v2l-1-3q2-4 8-3l5 1zm220 0 12 9-2-2-9-5zm-458 1-1 2-9 6 2-3zm111 0v5h-1zm22 1h10v8l-2 1-1-4-3 1-4-1-3 6-1-7 1-3zm26 1v4h-1zm96 0v4h-1zm-49 1v4h-1zm-98 3 2 1h-2zm194 0 2 1h-2zm-211 1 2 1h-2zm-103 1-4 5-4 3 3-4zm484 0q19 13 34 31l17 23 13 24 8 21 6 26 1 16 1 1v226l-1 2 1 1v9l-1 1-1 75-1 1v11l-5 26-10 27-8 15q-15 23-34 41l-15 12-24 15-24 11-25 8-15 3h-10l-6 2h-25l-1 1h-75l-1 1-2-1-4 1-3-1-1 1h-30l-1-1-23-1 11-1 1-1 30-1 1 1h15l1 1h39l1-1h51l4-1h2l21-2 4-2 26-5 5-3 16-5 24-12 18-12q-1-3 2-2l10-9 3-1 2-3 8-7 6-8 2-1q10-12 16-27l3-1v-5l5-6v-2q3-4 1-12h-1l-4-1-2 5q-3-1-2 2-16 37-44 61l-20 15-34 18-25 8-15 2-5 2h-6l-6 2h-35l-1 1H218l-35-7-34-13-19-11-30-26-2-4-4-2q-14-18-25-39l-7-17v-4l-6-18-2 3 1 2-1 5 1 5q-4-2-3 4l4 3-1 6 2 3-1 2q10 24 24 43l30 31 26 19 16 8 21 8h5q6 4 17 4l3 2 21 2 4 2q6-2 8 1h34q1-2 6-1 1 2 6 1v-1h-2l17-1h2q5-1 4 2h15l1 1 14 1h-18l-5-1v1l2 1h-27l-1-1h-60l-15-3h-8l-21-5q-21-6-38-16l-20-13-20-16-22-26-13-21-10-22-6-21-2-11v-8l-1-1v-14l-1-1V387l-1-2 1-2-1-1v-9l1-3-1-3 1-4-1-1v-52l1-1v-9l-1-1v-31l1-1v-18l-1-1v-45l1-1v-14l1-1 1-13 3-9v4l-3 13v9l1 2q-4-1-2 6h1l1-3 2 3q-3-1-2 4l1 3q3-1 2 2v2l1 2v41l1 1 1 241 1 1v13l1 1 1 11 5 20 4 8v-3l-5-15-1-13-1-1v-85q2-2 1-6l-1-1v-21l1-1v-11l1-2-1-1v-14q4-1 2 4h7l1-6 3 7v24l-1 2 4 2q-1-3 3-2l2 1v12l4 1v11h4v4l3 1v55l1 1 1 13 5 20 6 18 7 15q15 27 38 46l17 12 20 10 20 7 20 4 15 1 1 1h27l1 1h8l1-1h97l1 1h16l1-1h52l1 1h21l1-1h15l1-1 15-1 17-4 17-6q17-7 32-17l18-14v-1l20-22 17-30 10-28q0-10 4-16v-13l1-2-1-4 1-1 1-59q-2-2-1-6l1-1v-26h5l4-3-3-1q-2-6 4-4l5-1q-4-4-2-11h10l4-4v-15l3-1 1 88v2l-1 6 1 1v47l-1 1-1 33-7 27 2-1v-3l7-17v-4l2-3v-4l3-9 1-28 1-1V217l1-1v-17q3-1 2 2h1l1-2-1-3 1-1v-9l-5-24-12-31q-16-33-41-56l-17-13zm51 314-1 3h2zm-5 8 2 3 1-1zm10 172-2 4 2-1zM107 67l-6 7 1-2q-1-3 2-2zm86 1-1 2zm188 2 3 1-2 1zm101 0 2 1h-2zm-185 1 29 1h-29z"/>
  <path fill="#D2D2D2" stroke="#D2D2D2" d="M333 71q3-1 4 2-3 2-2 6-3-1-2 3l-1 5 2 9q3 1 2-1l-1-3 1-4-2-6 2-1 1 7 6 7 12 6h10q9-3 14-10l3-6 1-12q7 5 4 19l-5 9-10 7q-7 3-17 2l-14-5-7-6-3-10v-7q1-7 5-9-4 0-3-2Zm52 6-1 5 2 1zm-23 31v1h3zM187 72l-1 2zm53 1 1 1-1 1v8q2 8 8 13l3 2h-2l1 3 5-2 3 2h13l10-7q7-6 6-18l-1-2h1q-1 2 2 1 5 3 3 14-2 10-10 15l-7 4-12 2-15-5-8-6-4-10V79zm-3 5 1 15 2-1-1-7-1-3 1-2q1-3-2-2Zm18 23v1h2zm227-28 4 7v9q-2 10-9 15l-12 6h-11q-12-2-19-10l-5-10v-8l4-6v2q-4 2-3 10h1l2-8 3 9 8 8q5 5 18 4 7-2 12-6l6-12zm-4 18v4h-2l-4 3q-5 3 0 5 1-3 7-2l-1-1 3-1 2-6h-2l2-1zm-34 7v1h2zm92-25 1 2zM99 74l-4 5-2 3q-29 29-43 74l-1-2 6-17 12-23 23-32q3 1 2-1zm84 1-2 3zm-7 6-10 11q-2 7-8 11l-14 11-4-2-1 2 2 1h1q-14 15-25 34l-9 18-6 16-5 21v16l-1 1v56l1 1v13l-1 1v63l1 1v140h-1v-36l-1-1v-19l-1-1 1-1v-14l1-1v-60l-1-1v-34l-1-3v-79l-1-2 1-2-1-1v-37l1-1v-7l2-10 5-13v-3l10-22 16-24 15-16q2 1 1-1 10-12 25-18zm-20 16-2 2 2 2 2-1-1-1q1-3-1-2Zm-28 29-2 3q2 3 3 0zm-2 3-3 4q-1 2 3 1-2-2 1-3zm-16 25-3 5 2 2 1-4q2-2 0-3Zm436-73 6 6 20 14 19 19q24 24 34 62l3 16v35l-1 1v205l-1-229-5-26-12-33-4-2-9-15-24-28-13-9-5-8zm48 44q-2 3 1 2zm7 8-1 2 3 2zm9 14v5l2 1zm3 6-1 3 2 1zm-86-70 1 2zm3 2 1 2zm-343 3-1 2zm347 0 3 4zm-351 3-3 4zm297 4-1 2zm61 0 4 5zm6 7 1 2zm2 3 1 2zm-107 19 7 1h-7z"/>
  <path fill="#D2D2D2" stroke="#D2D2D2" d="M163 131v3h-1zm397 1v3h-1zm-313 2-1 2zm119 0 1 2zm90 2v9h-1zm-158 2 1 2zm263 0v4h-1zm-399 1v20h-1zm81 0-1 2zm66 2v9h-1zm35 0 13 1h-13zm131 0 9 1h-9zm-108 1 3 1h-4v6l-1-5zm62 1 1 2zm40 0-1 2zm17 2-2 3zm-161 1v24h-1zm237 1v216h-1zm-97 1-1 2zm-122 1v11h-1zm93 1v3l-2 1zm4 0v8h-1zm42 0-2 3zm-245 3v4h-1zm177 0 2 1h-2zm17 2-3 4zm-23 1-1 2zm-359 1v4l-1 3-1-3zm204 0v4h-1zm334 0q4-1 3 2l-1 2 3 4q2-1 0-2l2-3 6 8v3l6 10 3 9 2 15-1 3 2 3v45h-1q2-6-1-5l-2 1-1-3h-3v-2q-1-3 2-2v-2h3l-1-2q-3-3-10-2v3h-5v-7h-3v-4h-3v-7l-2-11 1-5-1-1-1-42 3-2-2-1q-1-4 2-5Zm23 89q-5 2-1 4l1-2zm-305-88v3h-1zm135 1v25h-1zm-203 1v4h-1zm237 0-2 3v1l-1-1zm-107 2v20h-1zm-233 4 1 3q3-1 2 4l-2 6 1 3-1 2 1 2q-3-1-2 4l1 3-1 1v7l-2 1h2l-1 6v4l1 5-1 2 1 1v23l-1 3q3 1-1 3l1 3-7 3v4q-5-1-4-6l4-2-4-2-1 3h-3q2 4-2 3h-5v-15l-1-1v-27l2-7q1 2 2 0l1-2h5v-3l-2-8 2-4-1-4 2-5q6 2 4-3l6-5 1-3 2 1-1-1zm-14 80-1 3h1zm305-75 1 1-2 1zm53 1 1 2zm-238 1 1 3-2-1zm33 0 3 4zm87 0v12h-1zm46 0 3 4zm-65 1-1 2zm89 0 1 2zm-120 1v3h-1zm151 0 1 2zm21 2 1 2zm-19 1 1 2zm-166 1 1 2zm-53 1 1 2zm241 1 1 2zm-323 2v104h-1zm232 0 3 4zm-145 2 1 2zm219 0 4 5zm-154 1 3 4zm-9 2-3 4zm-23 2-1 2zm3 0 4 5zm156 0 1 2zm-141 4-2 3zm-63 8 1 1-2 1zm52 0-2 3zm16 7v21h-1zm73 6 2 1h-2zm-30 2 1 2zm64 1-1 2zm-31 2 1 2zm72 0-1 2zm-176 2-1 2zm158 0 1 2zm-199 2v27h-1zm212 1-1 2zm-133 1-1 2zm19 1 3 1h-3zm129 3-3 4zm-174 1v9h-1zm54 0 1 2zm132 0 2 3zm-36 1v5h-1zm-15 3v4h-1zm-13 5v21h-1zm-50 1v3h-1zm-109 2v9h-1z"/>
  <path fill="#D2D2D2" stroke="#D2D2D2" d="M600 243q4-1 2 4-4 1-2-4Zm-272 2 6 1h-6zm11 0 4 1h-4zm13 0 3 1h-3zm-47 1v8h-1zm-26 2-1 2zm48 0 2 3zm-64 3 1 2zm176 0v12h-1zm-163 1-3 4zm170 2 1 2zm45 1-5 6zm-176 1 1 2zm-63 1v5h-1zm197 1 3 4zm-335 1v4h-2zm252 1v3h-1zm-46 1 1 2zm290 0q3-1 2 3l-2-1zm-320 2 1 3-2-1zm77 1 1 2zm-74 2 6 1h-6zm-62 28 24 1h-24zm208 0 57 1h-57zm60 1 2 2-1-1zm-277 2-4 5-2 6-1-1q2-7 7-10Zm281 0 3 4zm-215 1 29 1q1-2 7-1 1 3 8 1l1-1h62l1 1h20l2-1 1 1h19l2 1 1-1h15l1-1 5 1h11l1 4h15l3-1v1q-5-1-3 4-1 2-6 1l-8-2q1 3-2 2l-5-1v4q-3-1-2 4l3 2 1 2-4 1h-57q-2-3-8-1l-1 1h-87q-2-3-8-1l-2 1-1-1h-8q-2 2-6 1l-1-1h-57l-5 1-8-6-1-4h1q1 6 6 8l4 1-1-2q-3 1-2-2l-2-6q-3 1-2-2l-1-4h2q-1-3 2-2 3-4 12-2l1 1h18l1-1h10l1 1h8l1-1h12zm-38 17v2l7-1zm20 0v2h9q-3-3-9-2Zm-108-12v11h-1z"/>
  <path fill="#D2D2D2" stroke="#D2D2D2" d="M468 312q4-1 3 2-4 1-3-2Zm38 0v2l-6 5zm-273 8 42 1h-42zm-71 4v5h-1zm333 24 2 1h-2zm-274 2-3 4q-2 3-1 11l5 5 1 1h-1q-8-3-6-15z"/>
  <path fill="#D2D2D2" stroke="#D2D2D2" d="m271 352 3 2v2l1 1h6l1-2h7v8h-18q1 3-4 2l-5 2h-20v-4h-4q1-3-3-2v2q-3-1-2 2l-1 2h-2v-2q-3 1-2-1l-1-3-1 2q-3-1-2 4h-1l-2-6q3 1 2-2h5q-1-3 2-2-1 4 4 2v-4h2v-1h-3l13-1q1 3 8 1l1-1h15zm-29 3 1 2h11v-2zm56-2h23l1 2h6l1-2h46l3 1 3-1q1 3 4 2l1 4q5-2 3 4h4l1-3-1-5h24v4l1 2h4v2h1v-3q3 0 2-5 4 1 4-2h5v3q-1 4 2 3-1-3 2-2l3 2v-2h5q-1-3 3-2-2 6 4 4-1-3 2-2h2q6-2 4 4l-1 2q-5 2-14 1l-5 2-3-2h-20l-2 1-2-1-4 2-6-3q1 3-2 2 1-3-2-2-3 3-9 2l-4-1-4 1-4-2-2 4-15-2-1 1h-26l-6-1q1 3-2 2-6-3-15-2l2-1-2-2-3 1v2h-7l-3 2-9-3 3-1v-8h5zm32 8q-1 3 3 2 1-3-3-2Zm176-7 1 3h-1zm-283 3-1 2v1l-1-1zm285 1v3h-1zm-449 1v12h-1zm404 0v2q3-1 2 2-3 1-2-1zm44 4v2l-5 6 3-4zm48 0v12l-3 8v4q-3-1-2 4l2-1 3-5-1 2-1 3-10 10q-11 6-24 9l-4-1q-1 3-5 2l-1-1h-12q-2 2-6 1l-1-1h-26l-7 2h-6l-9 3q-14 6-23 18l-2 3h-2l1 2-3 1 1 2h-2l1 2-3 2v2l-3 10-2 3q-4-3-12-1l-1-1h-22l16-1-8-1-1-7-7-1v-12h-6l-1-1-1-3q4-1 3 2h4q-1-4 4-2v4h9l-1-4 10 1 7-2h10l6 1 2-1 2 3 3-4-8-1 9-1q-1-3-5-2l-5 1 2-3-4-4v-4q-5 2-4-2l4-2h12l1-4h16l6-2 17-1-16-1 34-2q1 2 6 1l1-1h11l7-6 1-8h-5l7-1q1 3 4 2l1-2 1 2q-3-1-2 2l6 2q-1-5 3-6h7l13-3 3-4v-3h7v3h1l-1-7q3 1 2-1zm-120 52v1h2zm-8 3-1 2 2-1zm-9 3-2 1v1l3-1 2 1h3q-2-3-6-2ZM66 367l2 1h1v2l-2-1-2 1zm495 1v3h-1zm-336 3 2 1h-2zm5 1 64 1h-64zm82 0 138 1H312zm142 0 2 1h-2zm42 0 2 1h-2zm-273 2 2 1h-2z"/>
  <path fill="#D2D2D2" stroke="#D2D2D2" d="m516 385 1 3h-2zm-354 10v108h-1zm-89 6q4-1 3 2-4 1-3-2Zm154 0 98 1h-98zm126 0 25 1h-25zm-131 2-5 6q-1 11 5 15l2 2-1-1-4-2q-4-4-4-11 1-7 7-9Zm324 10q2-1 1 2zm0 3-2 3zm-155 1 2 1h-2z"/>
  <path fill="#D2D2D2" stroke="#D2D2D2" d="m170 418 12 1v4h-1v1l8 3h5v-3h10v-1h1v1h5v3h7l-2-3q-3 1-2-1l1-3q3-1 2 2l5 6q4 4 13 2v5q4-1 3 2h4l1-2h7l2-2h9l2 2h12v4h8v-3h8v7h-16v-4h-16v8h-8q1-3-2-2 1 4-4 2v4h-9l-1-1h-8l-4 1v2q-4-1-3 2l-2 3 1 2h-2l1 3 2-4 7-4h3v1q-9 0-11 7l-2 6q1 7 6 10l-5-4-2-8-1 4 1 5 7 6 7 2h107l1 1h40l1-1h9v-2H243v-1h145l3 1 4-1 1 1h7l-1 36-2 3q-4-1-2 6v2l-2 7 1 4q-3 1-2 7l1 2-1 4q-3-1-2 3l3 2-1-2 4-3v2l-9 14h-2l-7 4-24 2-1-1H251l-1-1-25-1q-27-6-40-25-10-11-14-26l-2-10-1-44 1-3v-43zm12 9q-2 6 3 4 2-6-3-4Zm39 2v2l2-1zm-5 34-2 2 2 1zm15 51-6 3q2 3 9 1h2q5-1 7 1h23l1-1 4 1 2-1 5 1 4-1h24l7-2 2 1 4-1h36l-17-1-1-1zm168 2q-1 3 2 2 1-3-2-2Zm143-97-6 7-6 8-3 2-103 110-3 2-7 9-1-2q3 1 2-1l4-4 4-11 1-15 1-1v-10l1-1 1-26q4-1 2 7v2l1 1v-5h8v-2l5-3v-3q4 2 3-2l1-3q4 2 3-1 3-2 2-5 5 1 7-2l2-3 5-1 1-3q1 3 3-1 3 1 2-1l3-4 1 2 3-2v-2q3 1 2-1l3-3 2-8q3 1 2-3 1-3 3-1l2-1q2-5-2-4v-1l29-3zm-65 59-4 3q-6 3-8 10l-5 4h4q5-2 6-8l3-2 4-5zm-40 42-2 2 1 1 2-1q1-3-1-2Zm34-96 7 1h-7zm-13 1 3 1h-3z"/>
  <path fill="#D2D2D2" stroke="#D2D2D2" d="m227 426 119 1H227zm154 0 22 1h-22zm-143 4 2 1h-2zm17 0 3 1h-3zm183 2-1 2zm-132 3h19q-1 3 2 2l1-2h13q-1 3 2 2l1-2h13q-1 3 2 2-1-3 2-2v4h-7v4h-32v-4h-15zm128 0-3 4zm-7 10-1 2zm-200 7 7 1h-7zm9 3 101 1H236zm110 0 15 1h-15zm281 4v16h-1zm-208 8v5h-1zm10 12v4h-1zm-203 1 2 1h-2zm400 2v16h-1zM98 499v4h-1zm527 1v4h-1zm-526 5v3h-1zm525 0v4l-1 3-1-2zm-461 2v4h-1zm1 5q3 17 11 30l10 13 4 3 3 3 5 4h-1l-12-10-6-8-2 1 4 7-3-2-7-12 2-1q-1 3 2 2l-1-1-8-17-2-7zm338 11v34h-1zm15 0 2 1h-2zm22 0v3h-1zm3 0 10 1h-10zm-53 1 2 1h-2zm-71 1v10h-1zm75 0v29h-1zm72 1v3h-1zm-80 1v10h-1zm42 0 1 2zm-17 3 2 1h-2zm30 0v27h-1zm6 0v5h-1zm-16 1 2 5h-1zm-22 1v11h-1zm14 0 2 3zm24 4 2 2h-3zm-438 1 1 4h-1zm425 1v7h-1zm29 0q2 1 1 5h-1zm-145 3v3h-1zm-16 2q2-1 1 2zm145 0v6h-1zm-21 1v2l-2 1zm-16 3v4h-1zm-396 1 4 9-2-1zm410 0-1 2zm7 3-3 4zm-44 2v3h-1zm-304 3 2 3zm4 4 10 9-1-1q-7-2-9-8Zm-64 5 1 2zm77 0 3 3-1-1zm-75 3 1 2zm80 0 9 5h-1l-8-4zm184 2 1 1-12 8-12 1-1 1-3-1h-4l-9 1-5-1-3 1h-2l-7-1q-1 4 7 2v1h-37l28-1-4-2-1 1h-27l-2-1-4 1h-2l-2 1 8 1h-52v-1h12l1-1-13-1-15-2 7-1 1 1h42l1-1h31l2 1q1-2 6-1l1 1h22l1-1h23l1-1 1 1h7q-1-3 2-2l3 1q6-1 9-6Zm-110 11v1h4zm-151-9 1 2zm77 1 9 2 2 3 1 1h-2l-8-3zm11 0 12 4h-4l-8-3zm379 0-2 3zm-464 3 1 2zm460 2-3 4zm-372 1 2 1h-2zm-85 1 8 9zm14 14 4 5zm426 1-1 2zm-5 4-1 2zm-413 2 1 2zm409 1-1 2zm-405 2 2 3zm402 0-1 2zm-398 3 1 2zm394 0-1 2zm-3 2-1 2zm-382 4 1 2zm65 19 2 1h-2zm16 1 79 1h-79zm122 0 7 1h-7zm63 0 17 1h-17zm28 0 5 1h-5zm-135 53 3 1h-3z"/>
  <path fill="#FCFCFC" stroke="#FCFCFC" d="m454 24 18 1 1 1h34q1 3 8 1l30 6 15 5q44 18 73 51 20 21 32 51l11 34 1 11 1 1v9l-1 3v3l-1-2-2 1v16l-1 1v265l-1 1-1 28-3 9v4l-2 3v4l-8 21-1-2 6-19 1-15 1-1 1-71-1-5 1-2v-2l-1-88-3 1v15l-4 4h-10q-2 7 2 11l-9 1q-2 5 3 4l-1 2q-3 3-8 2v26q-2 1-1 6l1 1v17l-1 1v41l-1 4 1 2-1 1v13q-4 6-4 16l-10 28-17 30-20 22v1l-31 22-14 7-22 8-17 4-15 1-1 1-37 1-1-1h-52l-1 1h-16l-1-1h-97l-1 1h-8l-1-1h-27l-1-1-15-1-20-4-15-5-33-17-27-24q-22-25-33-62l-5-20-1-13-1-1v-56q-5 2-3-4h-4v-11l-4-1v-11l-1-1-4-1q1 3-1 2l-3-3 1-1v-24l-3-7-1 6h-7q2-5-2-4v14l1 2-1 1v11l-1 1v21q2 1 1 6l-1 1v85l1 1 1 13 6 20h-1l-4-10-5-20-1-11-1-1v-13l-1-1-1-241-1-1v-41l-1-2v-2q1-3-2-2v-2l-1-5h2l-3-2v2l-1-6q3 1 2-1l-1-1v-9l5-25 8-22 13-24 23-31q3 1 2-1 15-16 35-28 15-10 35-16l39-9h13l1-1h62l1 1h154l1-1h17zm-194 7-10 5q-11 6-11 21l-3 1h-16l-19 6-8 4q-15 9-25 21l-13 7-12 11q1 2-1 1l-15 16-16 24-10 22v3l-5 13-2 10v7l-1 1v37l1 1-1 2 1 2v79l1 3v34l1 1v60l-1 1v14l-1 1 1 1v19l1 1v36l5 24q10 36 31 61 20 23 49 38l15 6 15 4 17 3 24 1 1 1h79l1-1h41l1 1q6 2 8-1h54l1 1 46-1 29-5q35-10 59-31 26-21 40-54l12-34 2-11v-22l1-1v-15l-1-1v-19l1-1V234l1-1v-35l-3-16q-10-38-34-62l-19-19-44-33-22-9-22-1-2-1v-5l-3-8q-6-10-18-13-12 0-17 6-10 6-10 20l-4 1h-46q0-12-7-18-6-6-14-9l-10 1-12 7q-5 6-7 16v3h-46q0-11-6-16l-12-10zM59 359l-1 12h1zm14 42q-1 3 3 2 1-3-3-2Z"/>
  <path fill="#FCFCFC" stroke="#FCFCFC" d="M456 45q6-1 8 3l1 6-1-1-2-1h-10q-1-6 4-7Zm-195 1q8-1 10 5v1h-9l-3 1v2l-1-5zm95 0q8-1 10 4l1 3-1-1-9-1-3 2-1-3zM229 71q8-1 12 2l-4 3q-2 4-1 13 2 9 9 14l13 6 7 1 14-4 10-9 3-8v-8l-3-6q-3 1-2-1l-1-3h10l1 1h29q1-2 6-1l4 2-4 5-1 11 3 10 7 6 14 5h11l6-2 10-7 5-9V80l-5-9h53v3q-6 4-5 16 2 7 8 12l12 7 15 1q11-3 17-11l4-10v-9l-5-9h13l17 4q17 7 29 20 9 9 15 23l4 13 1 11 1 1v225q-3 16-12 25l1-2q-1-5 2-4v-4q5-7 3-19h-1q1 6-1 8-3-1-2 3l1 4h-1v-3h-7v3l-3 4-13 3h-7l-3 3v3l-6-2q1-3-2-2-2-3-8-2v1q6-2 4 4l-1 4-5 5-2 1-17 1q-2-2-6-1l-1 1h-95l-1-1h-25l-1 1h-26l-1-1h-98q-8 2-11 8l-1 5q2 7 7 11l5 2h186l8 2-3 4-2-3-6 1-2-1h-2l-21 2-4-1 1 4h-8l-1-4h-4q1 4-4 2 1-3-3-2l1 4h7v12h5l2 1 1 7 8 1h-24l-1-1h-15q-2 3-8 1l-1-1H226l-7 4-3 7q-4-2 0-3l1-4 1 1-1-3 2-4h3q-1-3 3-2l1-1h8l1 1h9v-4h4q-1-3 2-2l1 2h7v-8h16v-4h-12l-2-2h-9l-2 2h-8q1 4-4 2 1-3-3-2v-5h-9l-1-1-3 2q-1-3 2-2v-1q-3 1-2-1l-5-7q-3-1-2 2l-1 2 4 3h-7v-3h-5v-1h-1v1h-10v3h-5l-9-3 2-1q2-6-3-4l-1-1h-8l-1 3v43l-1 1v2l1 44 3 14q9 22 27 35l15 9 19 4h17l1 1h105l5 1 1-1 19-1 8-5v2l-7 5-5 1-3-1v2h-9l-46 1q-2-2-6-1l-2 1-1-1h-31l-1 1h-42l-1-1-12-1-9-3q-15-5-25-14l-2-4q-3 1-2-1-10-10-16-24l-7-23-1-177 1-5-1-1v-9l1-1v-10l-1-1v-15l1-1V184l-1-1v-23l1-1v-24l5-19 10-18 8-8 20-13zm143 50-8 6 1 8 7 4q9 0 12-5l-1-8q-3-5-11-5Zm70 3-1 1-2 1v58q3 1 1 7l2 1 12-1 1-1v-12l1-2 4-3 7 13 7 5q10 1 14-2 1-4-2-6l-14-17v-3l14-17 1-4-3-1-14 1-7 9-8 7 1-33zm-176 1q-12 2-19 9-8 7-11 20-1 18 7 27l7 6 14 6h15l4-3 9 7h6l7-8-1-5-8-5 7-9 2-9-2-14-4-7q-9-16-33-15Zm143 15-10 5q-9 6-12 17v10l6 12q5 5 14 8h13l15-9h1v-4l-11-8-2 3-6 4-7-1-7-8q-1-7 2-9l7-6h6l8 5h2l5-5h2l1-3q-6-13-27-11Zm-101 1v9l1 1v27l4 9q4 4 11 6l11-1 8-6 1 6q10 1 15-1l1-6v-11l-1-1v-32h-16v8l-1 1v22l-1 2-6 5-5-1-5-6v-25l-1-1v-5zm59 1-2 2q-1 4 1 6v32l1 1v8l2 1h11l1 1 2-2v-49l-6 1zm-130 60-2 2v47l1 1q-1 7 1 11 2 5 12 3l3-4v-18l-1-1 1-10 10 19q2 6 11 4 9-9 15-23l1 8v24l4 2 10-1 2-4v-15l-1-1v-15l1-1v-25l-1-1v-2h-15l-7 9-12 23-17-29-2-3zm94 13-10 5q-9 5-11 16-2 14 4 21 5 8 17 10 18 2 25-9 3 1 2-2l-8-6h-3l-8 4-8-2-5-6h17l1-1 16 1 1-2-1-10-4-8-8-9q-7-3-17-2Zm34 0v48l3 3q9 1 13-1v-26q1-6 6-9l5 1 3 7v26l3 2h11l2-5v-24l2-5 4-2 4 1 2 4 1 5v25l3 2 11-1 1-3v-30l-3-9-10-9h-8l-10 7-9-7q-12-1-16 6-3-1-2 2h-1l1-6-1-2zm100 0-12 5-9 10-3 11 2 10 5 8q5 6 15 8h11l12-6q7-5 10-14v-10l-5-10q-7-13-26-12Zm-234 79-9 3q-5 3-7 10l2 7 8 6q6-2 8 1h42l1-1h223l2-1 5-5 2-7-2-6q-3-6-10-7h-57l-1 1H256l-1-1zm-6 54-4 2-5 6q-1 7 1 11l5 4 8 2h64l1-1h16l1 1h186l4-2q5-3 6-10l-1-5q-3-6-10-8zm-2 26v1h2zm293 11-1 3h2zm-3 1q-2 3 1 2zm-275 44v1h2zm17 0v1h3zm51 5 1 4h15v4h32v-4h7v-4q-3-1-2 2-3 1-2-2h-13l-1 2q-3 1-2-2h-13l-1 2q-3 1-2-2zm-24 1v3h-8l1 4h15v-7zm-55 16v1h7z"/>
  <path fill="#FCFCFC" stroke="#FCFCFC" d="M268 140h6l9 8q6 5 4 18l-1 4-6-5h-5l-3 1-1 6 5 7q-14 1-20-8-5-6-3-17l7-10zm64 88q8-1 10 3l2 5h-19l5-7zm134 1h5l6 6q3 2 2 9l-5 7-7 2-8-5-2-8q2-7 7-10zm186 144 1 3h-2zm-5 8 3 2-1 1zm-119 7 2 2-1-1zm-13 20 3 1h-3zm-51 1 14 1h-14zm16 0 10 1h-10zm17 0 12 1h-12zm47 5q3-1 2 2l-6 5-20 9-30 4h3q1 4-1 5l-2-1q-3 1-2 5-3-1-2 2l-5 10h-2q1 3-1 2l-3 2v-2l-3 5q-3-1-4 2h-2q1 3-1 2l-6 3-1 2-6 1-2 6q-4-1-3 2l-1 3q-4-2-3 3l-5 3v2h-8v5h-1l-1-2 1-1v-7l-2 1v12l-1 1v12l-1 1v10l-1 1-1 15q-2 10-8 16l-1-2 2-4 1-13 1-1v-62l1-1v-8l4-13 7-11 6-6 8-5 18-4 53-1q1-2 7-1l14-4zm-115 65-1 4h1zm78 51 1 21h12l2-1 3-4q2-8-1-11l-5-4zM182 427q5-2 3 4-5 2-3-4Zm234 7v2l-4 6v-1zm-201 33 2 8 5 4 4 2h16l1 1h144v2h-9l-1 1h-40l-1-1H229l-7-2-7-6z"/>
  <path fill="#FCFCFC" stroke="#FCFCFC" d="m502 523 20 1 7 7q5 4 3 16l-7 9q-9 4-23 2zm37 0q4 2 13 1l1-1h10l1 7h-19v8q6-2 16-1l1 6h-17v6l1 2h17v2l1 4-1 1h-23v-27l-1-1zm-54 1 7 1v33h-4l-3-5zm172 29v3l-2 1z"/>
</svg>
